<?xml version="1.0" encoding="UTF-8" standalone="no"?><svg xmlns="http://www.w3.org/2000/svg" xmlns:xlink="http://www.w3.org/1999/xlink" clip-rule="evenodd" stroke-miterlimit="4.00" viewBox="0 0 1920 1080"><desc>SVG generated by Keynote</desc><defs></defs><g transform="matrix(1.00, 0.00, -0.00, -1.00, 0.0, 1080.0)"><g><clipPath id="clip-85"><path d="M 0.0 1080.0 L 1920.0 1080.0 L 1920.0 0.0 L 0.0 0.0 Z M 0.0 1080.0 "></path></clipPath><g clip-path="url(#clip-85)"><image xlink:href="../../5F235D52-7206-45E1-A186-866C578AD786/assets/8D4EDCBCCDF0C6FB622C1077A93EEDFA.jpeg" width="1366.00" height="729.00" transform="matrix(1.48, 0.00, -0.00, -1.48, -51.5, 1080.0)"></image><path d="M 0.0 1080.0 L 1920.0 1080.0 L 1920.0 0.0 L 0.0 0.0 Z M 0.0 1080.0 " fill="#252E35" fill-opacity="0.50"></path></g></g><text xml:space="preserve" font-family="SqoreSans-Bold" font-weight="bold" font-size="12.0" fill="#FEFFFF" transform="matrix(1.00, 0.00, -0.00, -1.00, 1683.1, 41.0)"></text><text xml:space="preserve" font-family="SqoreSans-Bold" font-weight="bold" font-size="12.0" fill="#FEFFFF" transform="matrix(1.00, 0.00, -0.00, -1.00, 1697.5, 41.0)"> </text><text xml:space="preserve" font-family="SqoreSans-Bold" font-weight="bold" font-size="12.0" fill="#FEFFFF" transform="matrix(1.00, 0.00, -0.00, -1.00, 1700.6, 41.0)">S</text><text xml:space="preserve" font-family="SqoreSans-Bold" font-weight="bold" font-size="12.0" fill="#FEFFFF" transform="matrix(1.00, 0.00, -0.00, -1.00, 1707.9, 41.0)">q</text><text xml:space="preserve" font-family="SqoreSans-Bold" font-weight="bold" font-size="12.0" fill="#FEFFFF" transform="matrix(1.00, 0.00, -0.00, -1.00, 1715.2, 41.0)">o</text><text xml:space="preserve" font-family="SqoreSans-Bold" font-weight="bold" font-size="12.0" fill="#FEFFFF" transform="matrix(1.00, 0.00, -0.00, -1.00, 1722.8, 41.0)">r</text><text xml:space="preserve" font-family="SqoreSans-Bold" font-weight="bold" font-size="12.0" fill="#FEFFFF" transform="matrix(1.00, 0.00, -0.00, -1.00, 1727.5, 41.0)">e</text><text xml:space="preserve" font-family="SqoreSans-Bold" font-weight="bold" font-size="12.0" fill="#FEFFFF" transform="matrix(1.00, 0.00, -0.00, -1.00, 1733.5, 41.0)">®</text><text xml:space="preserve" font-family="SqoreSans-Bold" font-weight="bold" font-size="12.0" fill="#FEFFFF" transform="matrix(1.00, 0.00, -0.00, -1.00, 1735.6, 41.0)"> </text><text xml:space="preserve" font-family="SqoreSans-Regular" font-size="12.0" fill="#FEFFFF" transform="matrix(1.00, 0.00, -0.00, -1.00, 1738.7, 41.0)">E</text><text xml:space="preserve" font-family="SqoreSans-Regular" font-size="12.0" fill="#FEFFFF" transform="matrix(1.00, 0.00, -0.00, -1.00, 1745.7, 41.0)">S</text><text xml:space="preserve" font-family="SqoreSans-Regular" font-size="12.0" fill="#FEFFFF" transform="matrix(1.00, 0.00, -0.00, -1.00, 1752.6, 41.0)">2</text><text xml:space="preserve" font-family="SqoreSans-Regular" font-size="12.0" fill="#FEFFFF" transform="matrix(1.00, 0.00, -0.00, -1.00, 1760.4, 41.0)">0</text><text xml:space="preserve" font-family="SqoreSans-Regular" font-size="12.0" fill="#FEFFFF" transform="matrix(1.00, 0.00, -0.00, -1.00, 1768.2, 41.0)">1</text><text xml:space="preserve" font-family="SqoreSans-Regular" font-size="12.0" fill="#FEFFFF" transform="matrix(1.00, 0.00, -0.00, -1.00, 1776.0, 41.0)">6</text><text xml:space="preserve" font-family="SqoreSans-Regular" font-size="12.0" fill="#FEFFFF" transform="matrix(1.00, 0.00, -0.00, -1.00, 1783.8, 41.0)"> </text><text xml:space="preserve" font-family="SqoreSans-Regular" font-size="12.0" fill="#FEFFFF" transform="matrix(1.00, 0.00, -0.00, -1.00, 1787.2, 41.0)">C</text><text xml:space="preserve" font-family="SqoreSans-Regular" font-size="12.0" fill="#FEFFFF" transform="matrix(1.00, 0.00, -0.00, -1.00, 1795.1, 41.0)">l</text><text xml:space="preserve" font-family="SqoreSans-Regular" font-size="12.0" fill="#FEFFFF" transform="matrix(1.00, 0.00, -0.00, -1.00, 1798.2, 41.0)">a</text><text xml:space="preserve" font-family="SqoreSans-Regular" font-size="12.0" fill="#FEFFFF" transform="matrix(1.00, 0.00, -0.00, -1.00, 1804.9, 41.0)">s</text><text xml:space="preserve" font-family="SqoreSans-Regular" font-size="12.0" fill="#FEFFFF" transform="matrix(1.00, 0.00, -0.00, -1.00, 1810.6, 41.0)">s</text><text xml:space="preserve" font-family="SqoreSans-Regular" font-size="12.0" fill="#FEFFFF" transform="matrix(1.00, 0.00, -0.00, -1.00, 1816.4, 41.0)">e</text><text xml:space="preserve" font-family="SqoreSans-Regular" font-size="12.0" fill="#FEFFFF" transform="matrix(1.00, 0.00, -0.00, -1.00, 1823.4, 41.0)">s</text><image xlink:href="../../5F235D52-7206-45E1-A186-866C578AD786/assets/ABF6AF48D909463B050F6AD9984B2774.png" width="227.00" height="57.00" transform="matrix(1.00, 0.00, -0.00, -1.00, 165.0, 697.0)"></image><text xml:space="preserve" font-family="SqoreSans-Bold" font-weight="bold" font-size="54.0" fill="#FEFFFF" transform="matrix(1.00, 0.00, -0.00, -1.00, 165.0, 656.0)">T</text><text xml:space="preserve" font-family="SqoreSans-Bold" font-weight="bold" font-size="54.0" fill="#FEFFFF" transform="matrix(1.00, 0.00, -0.00, -1.00, 200.9, 656.0)">h</text><text xml:space="preserve" font-family="SqoreSans-Bold" font-weight="bold" font-size="54.0" fill="#FEFFFF" transform="matrix(1.00, 0.00, -0.00, -1.00, 233.6, 656.0)">e</text><text xml:space="preserve" font-family="SqoreSans-Bold" font-weight="bold" font-size="54.0" fill="#FEFFFF" transform="matrix(1.00, 0.00, -0.00, -1.00, 264.5, 656.0)"> </text><text xml:space="preserve" font-family="SqoreSans-Bold" font-weight="bold" font-size="54.0" fill="#FEFFFF" transform="matrix(1.00, 0.00, -0.00, -1.00, 278.6, 656.0)">p</text><text xml:space="preserve" font-family="SqoreSans-Bold" font-weight="bold" font-size="54.0" fill="#FEFFFF" transform="matrix(1.00, 0.00, -0.00, -1.00, 311.5, 656.0)">l</text><text xml:space="preserve" font-family="SqoreSans-Bold" font-weight="bold" font-size="54.0" fill="#FEFFFF" transform="matrix(1.00, 0.00, -0.00, -1.00, 327.7, 656.0)">a</text><text xml:space="preserve" font-family="SqoreSans-Bold" font-weight="bold" font-size="54.0" fill="#FEFFFF" transform="matrix(1.00, 0.00, -0.00, -1.00, 359.5, 656.0)">n</text><text xml:space="preserve" font-family="SqoreSans-Bold" font-weight="bold" font-size="54.0" fill="#FEFFFF" transform="matrix(1.00, 0.00, -0.00, -1.00, 392.8, 656.0)"> </text><image xlink:href="../../53521E24-A7C5-4733-BDC9-1DA6C8287B92/assets/B300762E705199F2C4D8AAFAE34C516E.png" width="323.00" height="33.00" transform="matrix(1.00, 0.00, -0.00, -1.00, 118.0, 592.0)"></image><text xml:space="preserve" font-family="SqoreSans-Regular" font-size="37.0" fill="#FEFFFF" transform="matrix(1.00, 0.00, -0.00, -1.00, 117.0, 564.0)">E</text><text xml:space="preserve" font-family="SqoreSans-Regular" font-size="37.0" fill="#FEFFFF" transform="matrix(1.00, 0.00, -0.00, -1.00, 138.5, 564.0)">S</text><text xml:space="preserve" font-family="SqoreSans-Regular" font-size="37.0" fill="#FEFFFF" transform="matrix(1.00, 0.00, -0.00, -1.00, 159.8, 564.0)">5</text><text xml:space="preserve" font-family="SqoreSans-Regular" font-size="37.0" fill="#FEFFFF" transform="matrix(1.00, 0.00, -0.00, -1.00, 183.9, 564.0)"> </text><text xml:space="preserve" font-family="SqoreSans-Regular" font-size="37.0" fill="#FEFFFF" transform="matrix(1.00, 0.00, -0.00, -1.00, 194.5, 564.0)">v</text><text xml:space="preserve" font-family="SqoreSans-Regular" font-size="37.0" fill="#FEFFFF" transform="matrix(1.00, 0.00, -0.00, -1.00, 213.1, 564.0)">a</text><text xml:space="preserve" font-family="SqoreSans-Regular" font-size="37.0" fill="#FEFFFF" transform="matrix(1.00, 0.00, -0.00, -1.00, 233.9, 564.0)">n</text><text xml:space="preserve" font-family="SqoreSans-Regular" font-size="37.0" fill="#FEFFFF" transform="matrix(1.00, 0.00, -0.00, -1.00, 256.0, 564.0)">i</text><text xml:space="preserve" font-family="SqoreSans-Regular" font-size="37.0" fill="#FEFFFF" transform="matrix(1.00, 0.00, -0.00, -1.00, 265.7, 564.0)">l</text><text xml:space="preserve" font-family="SqoreSans-Regular" font-size="37.0" fill="#FEFFFF" transform="matrix(1.00, 0.00, -0.00, -1.00, 275.2, 564.0)">l</text><text xml:space="preserve" font-family="SqoreSans-Regular" font-size="37.0" fill="#FEFFFF" transform="matrix(1.00, 0.00, -0.00, -1.00, 284.8, 564.0)">a</text><text xml:space="preserve" font-family="SqoreSans-Regular" font-size="37.0" fill="#FEFFFF" transform="matrix(1.00, 0.00, -0.00, -1.00, 305.5, 564.0)"> </text><text xml:space="preserve" font-family="SqoreSans-Regular" font-size="37.0" fill="#FEFFFF" transform="matrix(1.00, 0.00, -0.00, -1.00, 315.9, 564.0)">c</text><text xml:space="preserve" font-family="SqoreSans-Regular" font-size="37.0" fill="#FEFFFF" transform="matrix(1.00, 0.00, -0.00, -1.00, 335.7, 564.0)">l</text><text xml:space="preserve" font-family="SqoreSans-Regular" font-size="37.0" fill="#FEFFFF" transform="matrix(1.00, 0.00, -0.00, -1.00, 345.2, 564.0)">a</text><text xml:space="preserve" font-family="SqoreSans-Regular" font-size="37.0" fill="#FEFFFF" transform="matrix(1.00, 0.00, -0.00, -1.00, 366.0, 564.0)">s</text><text xml:space="preserve" font-family="SqoreSans-Regular" font-size="37.0" fill="#FEFFFF" transform="matrix(1.00, 0.00, -0.00, -1.00, 383.6, 564.0)">s</text><text xml:space="preserve" font-family="SqoreSans-Regular" font-size="37.0" fill="#FEFFFF" transform="matrix(1.00, 0.00, -0.00, -1.00, 401.2, 564.0)">e</text><text xml:space="preserve" font-family="SqoreSans-Regular" font-size="37.0" fill="#FEFFFF" transform="matrix(1.00, 0.00, -0.00, -1.00, 422.8, 564.0)">s</text><text xml:space="preserve" font-family="SqoreSans-Regular" font-size="37.0" fill="#FEFFFF" transform="matrix(1.00, 0.00, -0.00, -1.00, 440.4, 564.0)"> </text><image xlink:href="../../53521E24-A7C5-4733-BDC9-1DA6C8287B92/assets/8209D2AB0BC55B365B68091B3A44C00B.png" width="240.00" height="40.00" transform="matrix(1.00, 0.00, -0.00, -1.00, 159.0, 530.0)"></image><text xml:space="preserve" font-family="SqoreSans-Regular" font-size="37.0" fill="#FEFFFF" transform="matrix(1.00, 0.00, -0.00, -1.00, 159.0, 502.0)">O</text><text xml:space="preserve" font-family="SqoreSans-Regular" font-size="37.0" fill="#FEFFFF" transform="matrix(1.00, 0.00, -0.00, -1.00, 188.6, 502.0)">b</text><text xml:space="preserve" font-family="SqoreSans-Regular" font-size="37.0" fill="#FEFFFF" transform="matrix(1.00, 0.00, -0.00, -1.00, 211.0, 502.0)">j</text><text xml:space="preserve" font-family="SqoreSans-Regular" font-size="37.0" fill="#FEFFFF" transform="matrix(1.00, 0.00, -0.00, -1.00, 221.0, 502.0)">e</text><text xml:space="preserve" font-family="SqoreSans-Regular" font-size="37.0" fill="#FEFFFF" transform="matrix(1.00, 0.00, -0.00, -1.00, 242.6, 502.0)">c</text><text xml:space="preserve" font-family="SqoreSans-Regular" font-size="37.0" fill="#FEFFFF" transform="matrix(1.00, 0.00, -0.00, -1.00, 262.5, 502.0)">t</text><text xml:space="preserve" font-family="SqoreSans-Regular" font-size="37.0" fill="#FEFFFF" transform="matrix(1.00, 0.00, -0.00, -1.00, 276.6, 502.0)">.</text><text xml:space="preserve" font-family="SqoreSans-Regular" font-size="37.0" fill="#FEFFFF" transform="matrix(1.00, 0.00, -0.00, -1.00, 288.4, 502.0)">c</text><text xml:space="preserve" font-family="SqoreSans-Regular" font-size="37.0" fill="#FEFFFF" transform="matrix(1.00, 0.00, -0.00, -1.00, 308.1, 502.0)">r</text><text xml:space="preserve" font-family="SqoreSans-Regular" font-size="37.0" fill="#FEFFFF" transform="matrix(1.00, 0.00, -0.00, -1.00, 321.6, 502.0)">e</text><text xml:space="preserve" font-family="SqoreSans-Regular" font-size="37.0" fill="#FEFFFF" transform="matrix(1.00, 0.00, -0.00, -1.00, 343.2, 502.0)">a</text><text xml:space="preserve" font-family="SqoreSans-Regular" font-size="37.0" fill="#FEFFFF" transform="matrix(1.00, 0.00, -0.00, -1.00, 363.6, 502.0)">t</text><text xml:space="preserve" font-family="SqoreSans-Regular" font-size="37.0" fill="#FEFFFF" transform="matrix(1.00, 0.00, -0.00, -1.00, 376.9, 502.0)">e</text><text xml:space="preserve" font-family="SqoreSans-Regular" font-size="37.0" fill="#FEFFFF" transform="matrix(1.00, 0.00, -0.00, -1.00, 398.5, 502.0)"> </text><image xlink:href="../../53521E24-A7C5-4733-BDC9-1DA6C8287B92/assets/B02B18873D6AA0116DA0ACF2A01073E5.png" width="288.00" height="40.00" transform="matrix(1.00, 0.00, -0.00, -1.00, 135.0, 469.0)"></image><text xml:space="preserve" font-family="SqoreSans-Regular" font-size="37.0" fill="#FEFFFF" transform="matrix(1.00, 0.00, -0.00, -1.00, 135.0, 441.0)">O</text><text xml:space="preserve" font-family="SqoreSans-Regular" font-size="37.0" fill="#FEFFFF" transform="matrix(1.00, 0.00, -0.00, -1.00, 164.6, 441.0)">b</text><text xml:space="preserve" font-family="SqoreSans-Regular" font-size="37.0" fill="#FEFFFF" transform="matrix(1.00, 0.00, -0.00, -1.00, 187.0, 441.0)">j</text><text xml:space="preserve" font-family="SqoreSans-Regular" font-size="37.0" fill="#FEFFFF" transform="matrix(1.00, 0.00, -0.00, -1.00, 197.0, 441.0)">e</text><text xml:space="preserve" font-family="SqoreSans-Regular" font-size="37.0" fill="#FEFFFF" transform="matrix(1.00, 0.00, -0.00, -1.00, 218.6, 441.0)">c</text><text xml:space="preserve" font-family="SqoreSans-Regular" font-size="37.0" fill="#FEFFFF" transform="matrix(1.00, 0.00, -0.00, -1.00, 238.5, 441.0)">t</text><text xml:space="preserve" font-family="SqoreSans-Regular" font-size="37.0" fill="#FEFFFF" transform="matrix(1.00, 0.00, -0.00, -1.00, 252.6, 441.0)"> </text><text xml:space="preserve" font-family="SqoreSans-Regular" font-size="37.0" fill="#FEFFFF" transform="matrix(1.00, 0.00, -0.00, -1.00, 263.3, 441.0)">i</text><text xml:space="preserve" font-family="SqoreSans-Regular" font-size="37.0" fill="#FEFFFF" transform="matrix(1.00, 0.00, -0.00, -1.00, 273.0, 441.0)">n</text><text xml:space="preserve" font-family="SqoreSans-Regular" font-size="37.0" fill="#FEFFFF" transform="matrix(1.00, 0.00, -0.00, -1.00, 295.1, 441.0)">i</text><text xml:space="preserve" font-family="SqoreSans-Regular" font-size="37.0" fill="#FEFFFF" transform="matrix(1.00, 0.00, -0.00, -1.00, 304.8, 441.0)">t</text><text xml:space="preserve" font-family="SqoreSans-Regular" font-size="37.0" fill="#FEFFFF" transform="matrix(1.00, 0.00, -0.00, -1.00, 319.0, 441.0)">i</text><text xml:space="preserve" font-family="SqoreSans-Regular" font-size="37.0" fill="#FEFFFF" transform="matrix(1.00, 0.00, -0.00, -1.00, 328.7, 441.0)">a</text><text xml:space="preserve" font-family="SqoreSans-Regular" font-size="37.0" fill="#FEFFFF" transform="matrix(1.00, 0.00, -0.00, -1.00, 349.5, 441.0)">l</text><text xml:space="preserve" font-family="SqoreSans-Regular" font-size="37.0" fill="#FEFFFF" transform="matrix(1.00, 0.00, -0.00, -1.00, 359.0, 441.0)">i</text><text xml:space="preserve" font-family="SqoreSans-Regular" font-size="37.0" fill="#FEFFFF" transform="matrix(1.00, 0.00, -0.00, -1.00, 368.7, 441.0)">z</text><text xml:space="preserve" font-family="SqoreSans-Regular" font-size="37.0" fill="#FEFFFF" transform="matrix(1.00, 0.00, -0.00, -1.00, 385.7, 441.0)">e</text><text xml:space="preserve" font-family="SqoreSans-Regular" font-size="37.0" fill="#FEFFFF" transform="matrix(1.00, 0.00, -0.00, -1.00, 407.4, 441.0)">r</text><text xml:space="preserve" font-family="SqoreSans-Regular" font-size="37.0" fill="#FEFFFF" transform="matrix(1.00, 0.00, -0.00, -1.00, 421.1, 441.0)"> </text><image xlink:href="../../53521E24-A7C5-4733-BDC9-1DA6C8287B92/assets/4F15BD03C4B496C63B4257A8761BDEE8.png" width="280.00" height="33.00" transform="matrix(1.00, 0.00, -0.00, -1.00, 139.0, 407.0)"></image><text xml:space="preserve" font-family="SqoreSans-Bold" font-weight="bold" font-size="37.0" fill="#FEFFFF" transform="matrix(1.00, 0.00, -0.00, -1.00, 139.0, 379.0)">E</text><text xml:space="preserve" font-family="SqoreSans-Bold" font-weight="bold" font-size="37.0" fill="#FEFFFF" transform="matrix(1.00, 0.00, -0.00, -1.00, 161.4, 379.0)">S</text><text xml:space="preserve" font-family="SqoreSans-Bold" font-weight="bold" font-size="37.0" fill="#FEFFFF" transform="matrix(1.00, 0.00, -0.00, -1.00, 183.9, 379.0)">2</text><text xml:space="preserve" font-family="SqoreSans-Bold" font-weight="bold" font-size="37.0" fill="#FEFFFF" transform="matrix(1.00, 0.00, -0.00, -1.00, 207.9, 379.0)">0</text><text xml:space="preserve" font-family="SqoreSans-Bold" font-weight="bold" font-size="37.0" fill="#FEFFFF" transform="matrix(1.00, 0.00, -0.00, -1.00, 232.0, 379.0)">1</text><text xml:space="preserve" font-family="SqoreSans-Bold" font-weight="bold" font-size="37.0" fill="#FEFFFF" transform="matrix(1.00, 0.00, -0.00, -1.00, 256.0, 379.0)">5</text><text xml:space="preserve" font-family="SqoreSans-Bold" font-weight="bold" font-size="37.0" fill="#FEFFFF" transform="matrix(1.00, 0.00, -0.00, -1.00, 280.1, 379.0)"> </text><text xml:space="preserve" font-family="SqoreSans-Bold" font-weight="bold" font-size="37.0" fill="#FEFFFF" transform="matrix(1.00, 0.00, -0.00, -1.00, 288.8, 379.0)">c</text><text xml:space="preserve" font-family="SqoreSans-Bold" font-weight="bold" font-size="37.0" fill="#FEFFFF" transform="matrix(1.00, 0.00, -0.00, -1.00, 308.6, 379.0)">l</text><text xml:space="preserve" font-family="SqoreSans-Bold" font-weight="bold" font-size="37.0" fill="#FEFFFF" transform="matrix(1.00, 0.00, -0.00, -1.00, 319.7, 379.0)">a</text><text xml:space="preserve" font-family="SqoreSans-Bold" font-weight="bold" font-size="37.0" fill="#FEFFFF" transform="matrix(1.00, 0.00, -0.00, -1.00, 341.5, 379.0)">s</text><text xml:space="preserve" font-family="SqoreSans-Bold" font-weight="bold" font-size="37.0" fill="#FEFFFF" transform="matrix(1.00, 0.00, -0.00, -1.00, 359.7, 379.0)">s</text><text xml:space="preserve" font-family="SqoreSans-Bold" font-weight="bold" font-size="37.0" fill="#FEFFFF" transform="matrix(1.00, 0.00, -0.00, -1.00, 377.9, 379.0)">e</text><text xml:space="preserve" font-family="SqoreSans-Bold" font-weight="bold" font-size="37.0" fill="#FEFFFF" transform="matrix(1.00, 0.00, -0.00, -1.00, 399.1, 379.0)">s</text><text xml:space="preserve" font-family="SqoreSans-Bold" font-weight="bold" font-size="12.0" fill="#FEFFFF" transform="matrix(1.00, 0.00, -0.00, -1.00, 1871.0, 41.0)">4</text><text xml:space="preserve" font-family="CourierNewPS-BoldMT" font-weight="bold" font-size="37.0" fill="#06E2E2" transform="matrix(1.00, 0.00, -0.00, -1.00, 744.0, 761.0)">c</text><text xml:space="preserve" font-family="CourierNewPS-BoldMT" font-weight="bold" font-size="37.0" fill="#06E2E2" transform="matrix(1.00, 0.00, -0.00, -1.00, 766.2, 761.0)">l</text><text xml:space="preserve" font-family="CourierNewPS-BoldMT" font-weight="bold" font-size="37.0" fill="#06E2E2" transform="matrix(1.00, 0.00, -0.00, -1.00, 788.4, 761.0)">a</text><text xml:space="preserve" font-family="CourierNewPS-BoldMT" font-weight="bold" font-size="37.0" fill="#06E2E2" transform="matrix(1.00, 0.00, -0.00, -1.00, 810.6, 761.0)">s</text><text xml:space="preserve" font-family="CourierNewPS-BoldMT" font-weight="bold" font-size="37.0" fill="#06E2E2" transform="matrix(1.00, 0.00, -0.00, -1.00, 832.8, 761.0)">s</text><text xml:space="preserve" font-family="CourierNewPSMT" font-size="37.0" fill="#000000" transform="matrix(1.00, 0.00, -0.00, -1.00, 855.0, 761.0)"> </text><text xml:space="preserve" font-family="CourierNewPSMT" font-size="37.0" fill="#22AFDE" transform="matrix(1.00, 0.00, -0.00, -1.00, 877.2, 761.0)">B</text><text xml:space="preserve" font-family="CourierNewPSMT" font-size="37.0" fill="#22AFDE" transform="matrix(1.00, 0.00, -0.00, -1.00, 899.4, 761.0)">a</text><text xml:space="preserve" font-family="CourierNewPSMT" font-size="37.0" fill="#22AFDE" transform="matrix(1.00, 0.00, -0.00, -1.00, 921.6, 761.0)">z</text><text xml:space="preserve" font-family="CourierNewPSMT" font-size="37.0" fill="#22AFDE" transform="matrix(1.00, 0.00, -0.00, -1.00, 943.8, 761.0)">a</text><text xml:space="preserve" font-family="CourierNewPSMT" font-size="37.0" fill="#22AFDE" transform="matrix(1.00, 0.00, -0.00, -1.00, 966.1, 761.0)">r</text><text xml:space="preserve" font-family="CourierNewPSMT" font-size="37.0" fill="#000000" transform="matrix(1.00, 0.00, -0.00, -1.00, 988.2, 761.0)"> </text><text xml:space="preserve" font-family="CourierNewPSMT" font-size="37.0" fill="#D5D0D0" transform="matrix(1.00, 0.00, -0.00, -1.00, 1010.4, 761.0)">{</text><text xml:space="preserve" font-family="CourierNewPSMT" font-size="37.0" fill="#000000" transform="matrix(1.00, 0.00, -0.00, -1.00, 1032.6, 761.0)"> </text><text xml:space="preserve" font-family="CourierNewPSMT" font-size="37.0" fill="#000000" transform="matrix(1.00, 0.00, -0.00, -1.00, 744.0, 719.0)"> </text><text xml:space="preserve" font-family="CourierNewPSMT" font-size="37.0" fill="#000000" transform="matrix(1.00, 0.00, -0.00, -1.00, 766.2, 719.0)"> </text><text xml:space="preserve" font-family="CourierNewPSMT" font-size="37.0" fill="#00EEE2" transform="matrix(1.00, 0.00, -0.00, -1.00, 788.4, 719.0)">c</text><text xml:space="preserve" font-family="CourierNewPSMT" font-size="37.0" fill="#00EEE2" transform="matrix(1.00, 0.00, -0.00, -1.00, 810.6, 719.0)">o</text><text xml:space="preserve" font-family="CourierNewPSMT" font-size="37.0" fill="#00EEE2" transform="matrix(1.00, 0.00, -0.00, -1.00, 832.8, 719.0)">n</text><text xml:space="preserve" font-family="CourierNewPSMT" font-size="37.0" fill="#00EEE2" transform="matrix(1.00, 0.00, -0.00, -1.00, 855.0, 719.0)">s</text><text xml:space="preserve" font-family="CourierNewPSMT" font-size="37.0" fill="#00EEE2" transform="matrix(1.00, 0.00, -0.00, -1.00, 877.2, 719.0)">t</text><text xml:space="preserve" font-family="CourierNewPSMT" font-size="37.0" fill="#00EEE2" transform="matrix(1.00, 0.00, -0.00, -1.00, 899.4, 719.0)">r</text><text xml:space="preserve" font-family="CourierNewPSMT" font-size="37.0" fill="#00EEE2" transform="matrix(1.00, 0.00, -0.00, -1.00, 921.7, 719.0)">u</text><text xml:space="preserve" font-family="CourierNewPSMT" font-size="37.0" fill="#00EEE2" transform="matrix(1.00, 0.00, -0.00, -1.00, 943.9, 719.0)">c</text><text xml:space="preserve" font-family="CourierNewPSMT" font-size="37.0" fill="#00EEE2" transform="matrix(1.00, 0.00, -0.00, -1.00, 966.1, 719.0)">t</text><text xml:space="preserve" font-family="CourierNewPSMT" font-size="37.0" fill="#00EEE2" transform="matrix(1.00, 0.00, -0.00, -1.00, 988.3, 719.0)">o</text><text xml:space="preserve" font-family="CourierNewPSMT" font-size="37.0" fill="#00EEE2" transform="matrix(1.00, 0.00, -0.00, -1.00, 1010.5, 719.0)">r</text><text xml:space="preserve" font-family="CourierNewPSMT" font-size="37.0" fill="#D5D0D0" transform="matrix(1.00, 0.00, -0.00, -1.00, 1032.6, 719.0)">(</text><text xml:space="preserve" font-family="CourierNewPSMT" font-size="37.0" fill="#22AFDE" transform="matrix(1.00, 0.00, -0.00, -1.00, 1054.9, 719.0)">s</text><text xml:space="preserve" font-family="CourierNewPSMT" font-size="37.0" fill="#22AFDE" transform="matrix(1.00, 0.00, -0.00, -1.00, 1077.1, 719.0)">t</text><text xml:space="preserve" font-family="CourierNewPSMT" font-size="37.0" fill="#22AFDE" transform="matrix(1.00, 0.00, -0.00, -1.00, 1099.3, 719.0)">a</text><text xml:space="preserve" font-family="CourierNewPSMT" font-size="37.0" fill="#22AFDE" transform="matrix(1.00, 0.00, -0.00, -1.00, 1121.5, 719.0)">l</text><text xml:space="preserve" font-family="CourierNewPSMT" font-size="37.0" fill="#22AFDE" transform="matrix(1.00, 0.00, -0.00, -1.00, 1143.7, 719.0)">l</text><text xml:space="preserve" font-family="CourierNewPSMT" font-size="37.0" fill="#22AFDE" transform="matrix(1.00, 0.00, -0.00, -1.00, 1165.9, 719.0)">s</text><text xml:space="preserve" font-family="CourierNewPSMT" font-size="37.0" fill="#D5D0D0" transform="matrix(1.00, 0.00, -0.00, -1.00, 1188.1, 719.0)">)</text><text xml:space="preserve" font-family="CourierNewPSMT" font-size="37.0" fill="#D5D0D0" transform="matrix(1.00, 0.00, -0.00, -1.00, 1210.3, 719.0)"> </text><text xml:space="preserve" font-family="CourierNewPSMT" font-size="37.0" fill="#D5D0D0" transform="matrix(1.00, 0.00, -0.00, -1.00, 1232.5, 719.0)">{</text><text xml:space="preserve" font-family="CourierNewPSMT" font-size="37.0" fill="#000000" transform="matrix(1.00, 0.00, -0.00, -1.00, 1254.7, 719.0)"> </text><text xml:space="preserve" font-family="CourierNewPSMT" font-size="37.0" fill="#000000" transform="matrix(1.00, 0.00, -0.00, -1.00, 744.0, 677.0)"> </text><text xml:space="preserve" font-family="CourierNewPSMT" font-size="37.0" fill="#000000" transform="matrix(1.00, 0.00, -0.00, -1.00, 766.2, 677.0)"> </text><text xml:space="preserve" font-family="CourierNewPSMT" font-size="37.0" fill="#000000" transform="matrix(1.00, 0.00, -0.00, -1.00, 788.4, 677.0)"> </text><text xml:space="preserve" font-family="CourierNewPSMT" font-size="37.0" fill="#000000" transform="matrix(1.00, 0.00, -0.00, -1.00, 810.6, 677.0)"> </text><text xml:space="preserve" font-family="CourierNewPS-BoldMT" font-weight="bold" font-size="37.0" fill="#06E2E2" transform="matrix(1.00, 0.00, -0.00, -1.00, 832.8, 677.0)">t</text><text xml:space="preserve" font-family="CourierNewPS-BoldMT" font-weight="bold" font-size="37.0" fill="#06E2E2" transform="matrix(1.00, 0.00, -0.00, -1.00, 855.0, 677.0)">h</text><text xml:space="preserve" font-family="CourierNewPS-BoldMT" font-weight="bold" font-size="37.0" fill="#06E2E2" transform="matrix(1.00, 0.00, -0.00, -1.00, 877.2, 677.0)">i</text><text xml:space="preserve" font-family="CourierNewPS-BoldMT" font-weight="bold" font-size="37.0" fill="#06E2E2" transform="matrix(1.00, 0.00, -0.00, -1.00, 899.4, 677.0)">s</text><text xml:space="preserve" font-family="CourierNewPSMT" font-size="37.0" fill="#D5D0D0" transform="matrix(1.00, 0.00, -0.00, -1.00, 921.6, 677.0)">.</text><text xml:space="preserve" font-family="CourierNewPSMT" font-size="37.0" fill="#22AFDE" transform="matrix(1.00, 0.00, -0.00, -1.00, 943.8, 677.0)">s</text><text xml:space="preserve" font-family="CourierNewPSMT" font-size="37.0" fill="#22AFDE" transform="matrix(1.00, 0.00, -0.00, -1.00, 966.0, 677.0)">t</text><text xml:space="preserve" font-family="CourierNewPSMT" font-size="37.0" fill="#22AFDE" transform="matrix(1.00, 0.00, -0.00, -1.00, 988.2, 677.0)">a</text><text xml:space="preserve" font-family="CourierNewPSMT" font-size="37.0" fill="#22AFDE" transform="matrix(1.00, 0.00, -0.00, -1.00, 1010.5, 677.0)">l</text><text xml:space="preserve" font-family="CourierNewPSMT" font-size="37.0" fill="#22AFDE" transform="matrix(1.00, 0.00, -0.00, -1.00, 1032.7, 677.0)">l</text><text xml:space="preserve" font-family="CourierNewPSMT" font-size="37.0" fill="#22AFDE" transform="matrix(1.00, 0.00, -0.00, -1.00, 1054.9, 677.0)">s</text><text xml:space="preserve" font-family="CourierNewPSMT" font-size="37.0" fill="#000000" transform="matrix(1.00, 0.00, -0.00, -1.00, 1077.1, 677.0)"> </text><text xml:space="preserve" font-family="CourierNewPSMT" font-size="37.0" fill="#D5D0D0" transform="matrix(1.00, 0.00, -0.00, -1.00, 1099.3, 677.0)">=</text><text xml:space="preserve" font-family="CourierNewPSMT" font-size="37.0" fill="#000000" transform="matrix(1.00, 0.00, -0.00, -1.00, 1121.5, 677.0)"> </text><text xml:space="preserve" font-family="CourierNewPSMT" font-size="37.0" fill="#22AFDE" transform="matrix(1.00, 0.00, -0.00, -1.00, 1143.7, 677.0)">A</text><text xml:space="preserve" font-family="CourierNewPSMT" font-size="37.0" fill="#22AFDE" transform="matrix(1.00, 0.00, -0.00, -1.00, 1165.9, 677.0)">r</text><text xml:space="preserve" font-family="CourierNewPSMT" font-size="37.0" fill="#22AFDE" transform="matrix(1.00, 0.00, -0.00, -1.00, 1188.1, 677.0)">r</text><text xml:space="preserve" font-family="CourierNewPSMT" font-size="37.0" fill="#22AFDE" transform="matrix(1.00, 0.00, -0.00, -1.00, 1210.3, 677.0)">a</text><text xml:space="preserve" font-family="CourierNewPSMT" font-size="37.0" fill="#22AFDE" transform="matrix(1.00, 0.00, -0.00, -1.00, 1232.5, 677.0)">y</text><text xml:space="preserve" font-family="CourierNewPSMT" font-size="37.0" fill="#D5D0D0" transform="matrix(1.00, 0.00, -0.00, -1.00, 1254.7, 677.0)">.</text><text xml:space="preserve" font-family="CourierNewPSMT" font-size="37.0" fill="#00EEE2" transform="matrix(1.00, 0.00, -0.00, -1.00, 1276.9, 677.0)">f</text><text xml:space="preserve" font-family="CourierNewPSMT" font-size="37.0" fill="#00EEE2" transform="matrix(1.00, 0.00, -0.00, -1.00, 1299.1, 677.0)">r</text><text xml:space="preserve" font-family="CourierNewPSMT" font-size="37.0" fill="#00EEE2" transform="matrix(1.00, 0.00, -0.00, -1.00, 1321.3, 677.0)">o</text><text xml:space="preserve" font-family="CourierNewPSMT" font-size="37.0" fill="#00EEE2" transform="matrix(1.00, 0.00, -0.00, -1.00, 1343.5, 677.0)">m</text><text xml:space="preserve" font-family="CourierNewPSMT" font-size="37.0" fill="#D5D0D0" transform="matrix(1.00, 0.00, -0.00, -1.00, 1365.7, 677.0)">(</text><text xml:space="preserve" font-family="CourierNewPSMT" font-size="37.0" fill="#22AFDE" transform="matrix(1.00, 0.00, -0.00, -1.00, 1387.9, 677.0)">s</text><text xml:space="preserve" font-family="CourierNewPSMT" font-size="37.0" fill="#22AFDE" transform="matrix(1.00, 0.00, -0.00, -1.00, 1410.1, 677.0)">t</text><text xml:space="preserve" font-family="CourierNewPSMT" font-size="37.0" fill="#22AFDE" transform="matrix(1.00, 0.00, -0.00, -1.00, 1432.3, 677.0)">a</text><text xml:space="preserve" font-family="CourierNewPSMT" font-size="37.0" fill="#22AFDE" transform="matrix(1.00, 0.00, -0.00, -1.00, 1454.5, 677.0)">l</text><text xml:space="preserve" font-family="CourierNewPSMT" font-size="37.0" fill="#22AFDE" transform="matrix(1.00, 0.00, -0.00, -1.00, 1476.7, 677.0)">l</text><text xml:space="preserve" font-family="CourierNewPSMT" font-size="37.0" fill="#22AFDE" transform="matrix(1.00, 0.00, -0.00, -1.00, 1498.9, 677.0)">s</text><text xml:space="preserve" font-family="CourierNewPSMT" font-size="37.0" fill="#D5D0D0" transform="matrix(1.00, 0.00, -0.00, -1.00, 1521.1, 677.0)">)</text><text xml:space="preserve" font-family="CourierNewPSMT" font-size="37.0" fill="#000000" transform="matrix(1.00, 0.00, -0.00, -1.00, 1543.3, 677.0)"> </text><text xml:space="preserve" font-family="CourierNewPSMT" font-size="37.0" fill="#000000" transform="matrix(1.00, 0.00, -0.00, -1.00, 744.0, 635.0)"> </text><text xml:space="preserve" font-family="CourierNewPSMT" font-size="37.0" fill="#000000" transform="matrix(1.00, 0.00, -0.00, -1.00, 766.2, 635.0)"> </text><text xml:space="preserve" font-family="CourierNewPSMT" font-size="37.0" fill="#D5D0D0" transform="matrix(1.00, 0.00, -0.00, -1.00, 788.4, 635.0)">}</text><text xml:space="preserve" font-family="CourierNewPSMT" font-size="37.0" fill="#000000" transform="matrix(1.00, 0.00, -0.00, -1.00, 810.6, 635.0)"> </text><text xml:space="preserve" font-family="CourierNewPSMT" font-size="37.0" fill="#000000" transform="matrix(1.00, 0.00, -0.00, -1.00, 744.0, 551.0)"> </text><text xml:space="preserve" font-family="CourierNewPSMT" font-size="37.0" fill="#000000" transform="matrix(1.00, 0.00, -0.00, -1.00, 766.2, 551.0)"> </text><text xml:space="preserve" font-family="CourierNewPS-BoldMT" font-weight="bold" font-size="37.0" fill="#06E2E2" transform="matrix(1.00, 0.00, -0.00, -1.00, 788.4, 551.0)">g</text><text xml:space="preserve" font-family="CourierNewPS-BoldMT" font-weight="bold" font-size="37.0" fill="#06E2E2" transform="matrix(1.00, 0.00, -0.00, -1.00, 810.6, 551.0)">e</text><text xml:space="preserve" font-family="CourierNewPS-BoldMT" font-weight="bold" font-size="37.0" fill="#06E2E2" transform="matrix(1.00, 0.00, -0.00, -1.00, 832.8, 551.0)">t</text><text xml:space="preserve" font-family="CourierNewPSMT" font-size="37.0" fill="#000000" transform="matrix(1.00, 0.00, -0.00, -1.00, 855.0, 551.0)"> </text><text xml:space="preserve" font-family="CourierNewPSMT" font-size="37.0" fill="#00EEE2" transform="matrix(1.00, 0.00, -0.00, -1.00, 877.2, 551.0)">s</text><text xml:space="preserve" font-family="CourierNewPSMT" font-size="37.0" fill="#00EEE2" transform="matrix(1.00, 0.00, -0.00, -1.00, 899.4, 551.0)">t</text><text xml:space="preserve" font-family="CourierNewPSMT" font-size="37.0" fill="#00EEE2" transform="matrix(1.00, 0.00, -0.00, -1.00, 921.6, 551.0)">a</text><text xml:space="preserve" font-family="CourierNewPSMT" font-size="37.0" fill="#00EEE2" transform="matrix(1.00, 0.00, -0.00, -1.00, 943.8, 551.0)">l</text><text xml:space="preserve" font-family="CourierNewPSMT" font-size="37.0" fill="#00EEE2" transform="matrix(1.00, 0.00, -0.00, -1.00, 966.1, 551.0)">l</text><text xml:space="preserve" font-family="CourierNewPSMT" font-size="37.0" fill="#00EEE2" transform="matrix(1.00, 0.00, -0.00, -1.00, 988.3, 551.0)">s</text><text xml:space="preserve" font-family="CourierNewPSMT" font-size="37.0" fill="#D5D0D0" transform="matrix(1.00, 0.00, -0.00, -1.00, 1010.4, 551.0)">(</text><text xml:space="preserve" font-family="CourierNewPSMT" font-size="37.0" fill="#D5D0D0" transform="matrix(1.00, 0.00, -0.00, -1.00, 1032.7, 551.0)">)</text><text xml:space="preserve" font-family="CourierNewPSMT" font-size="37.0" fill="#D5D0D0" transform="matrix(1.00, 0.00, -0.00, -1.00, 1054.9, 551.0)"> </text><text xml:space="preserve" font-family="CourierNewPSMT" font-size="37.0" fill="#D5D0D0" transform="matrix(1.00, 0.00, -0.00, -1.00, 1077.1, 551.0)">{</text><text xml:space="preserve" font-family="CourierNewPSMT" font-size="37.0" fill="#000000" transform="matrix(1.00, 0.00, -0.00, -1.00, 1099.3, 551.0)"> </text><text xml:space="preserve" font-family="CourierNewPSMT" font-size="37.0" fill="#000000" transform="matrix(1.00, 0.00, -0.00, -1.00, 744.0, 509.0)"> </text><text xml:space="preserve" font-family="CourierNewPSMT" font-size="37.0" fill="#000000" transform="matrix(1.00, 0.00, -0.00, -1.00, 766.2, 509.0)"> </text><text xml:space="preserve" font-family="CourierNewPSMT" font-size="37.0" fill="#000000" transform="matrix(1.00, 0.00, -0.00, -1.00, 788.4, 509.0)"> </text><text xml:space="preserve" font-family="CourierNewPSMT" font-size="37.0" fill="#000000" transform="matrix(1.00, 0.00, -0.00, -1.00, 810.6, 509.0)"> </text><text xml:space="preserve" font-family="CourierNewPS-ItalicMT" font-style="italic" font-size="37.0" fill="#D08E7D" transform="matrix(1.00, 0.00, -0.00, -1.00, 832.8, 509.0)">/</text><text xml:space="preserve" font-family="CourierNewPS-ItalicMT" font-style="italic" font-size="37.0" fill="#D08E7D" transform="matrix(1.00, 0.00, -0.00, -1.00, 855.0, 509.0)">/</text><text xml:space="preserve" font-family="CourierNewPS-ItalicMT" font-style="italic" font-size="37.0" fill="#D08E7D" transform="matrix(1.00, 0.00, -0.00, -1.00, 877.2, 509.0)"> </text><text xml:space="preserve" font-family="CourierNewPS-ItalicMT" font-style="italic" font-size="37.0" fill="#D08E7D" transform="matrix(1.00, 0.00, -0.00, -1.00, 899.4, 509.0)">U</text><text xml:space="preserve" font-family="CourierNewPS-ItalicMT" font-style="italic" font-size="37.0" fill="#D08E7D" transform="matrix(1.00, 0.00, -0.00, -1.00, 921.6, 509.0)">s</text><text xml:space="preserve" font-family="CourierNewPS-ItalicMT" font-style="italic" font-size="37.0" fill="#D08E7D" transform="matrix(1.00, 0.00, -0.00, -1.00, 943.9, 509.0)">e</text><text xml:space="preserve" font-family="CourierNewPS-ItalicMT" font-style="italic" font-size="37.0" fill="#D08E7D" transform="matrix(1.00, 0.00, -0.00, -1.00, 966.1, 509.0)"> </text><text xml:space="preserve" font-family="CourierNewPS-ItalicMT" font-style="italic" font-size="37.0" fill="#D08E7D" transform="matrix(1.00, 0.00, -0.00, -1.00, 988.3, 509.0)">v</text><text xml:space="preserve" font-family="CourierNewPS-ItalicMT" font-style="italic" font-size="37.0" fill="#D08E7D" transform="matrix(1.00, 0.00, -0.00, -1.00, 1010.5, 509.0)">a</text><text xml:space="preserve" font-family="CourierNewPS-ItalicMT" font-style="italic" font-size="37.0" fill="#D08E7D" transform="matrix(1.00, 0.00, -0.00, -1.00, 1032.7, 509.0)">l</text><text xml:space="preserve" font-family="CourierNewPS-ItalicMT" font-style="italic" font-size="37.0" fill="#D08E7D" transform="matrix(1.00, 0.00, -0.00, -1.00, 1054.9, 509.0)">u</text><text xml:space="preserve" font-family="CourierNewPS-ItalicMT" font-style="italic" font-size="37.0" fill="#D08E7D" transform="matrix(1.00, 0.00, -0.00, -1.00, 1077.1, 509.0)">e</text><text xml:space="preserve" font-family="CourierNewPS-ItalicMT" font-style="italic" font-size="37.0" fill="#D08E7D" transform="matrix(1.00, 0.00, -0.00, -1.00, 1099.3, 509.0)">,</text><text xml:space="preserve" font-family="CourierNewPS-ItalicMT" font-style="italic" font-size="37.0" fill="#D08E7D" transform="matrix(1.00, 0.00, -0.00, -1.00, 1121.5, 509.0)"> </text><text xml:space="preserve" font-family="CourierNewPS-ItalicMT" font-style="italic" font-size="37.0" fill="#D08E7D" transform="matrix(1.00, 0.00, -0.00, -1.00, 1143.7, 509.0)">n</text><text xml:space="preserve" font-family="CourierNewPS-ItalicMT" font-style="italic" font-size="37.0" fill="#D08E7D" transform="matrix(1.00, 0.00, -0.00, -1.00, 1165.9, 509.0)">o</text><text xml:space="preserve" font-family="CourierNewPS-ItalicMT" font-style="italic" font-size="37.0" fill="#D08E7D" transform="matrix(1.00, 0.00, -0.00, -1.00, 1188.1, 509.0)">t</text><text xml:space="preserve" font-family="CourierNewPS-ItalicMT" font-style="italic" font-size="37.0" fill="#D08E7D" transform="matrix(1.00, 0.00, -0.00, -1.00, 1210.3, 509.0)"> </text><text xml:space="preserve" font-family="CourierNewPS-ItalicMT" font-style="italic" font-size="37.0" fill="#D08E7D" transform="matrix(1.00, 0.00, -0.00, -1.00, 1232.5, 509.0)">r</text><text xml:space="preserve" font-family="CourierNewPS-ItalicMT" font-style="italic" font-size="37.0" fill="#D08E7D" transform="matrix(1.00, 0.00, -0.00, -1.00, 1254.8, 509.0)">e</text><text xml:space="preserve" font-family="CourierNewPS-ItalicMT" font-style="italic" font-size="37.0" fill="#D08E7D" transform="matrix(1.00, 0.00, -0.00, -1.00, 1277.0, 509.0)">f</text><text xml:space="preserve" font-family="CourierNewPS-ItalicMT" font-style="italic" font-size="37.0" fill="#D08E7D" transform="matrix(1.00, 0.00, -0.00, -1.00, 1299.2, 509.0)">e</text><text xml:space="preserve" font-family="CourierNewPS-ItalicMT" font-style="italic" font-size="37.0" fill="#D08E7D" transform="matrix(1.00, 0.00, -0.00, -1.00, 1321.4, 509.0)">r</text><text xml:space="preserve" font-family="CourierNewPS-ItalicMT" font-style="italic" font-size="37.0" fill="#D08E7D" transform="matrix(1.00, 0.00, -0.00, -1.00, 1343.6, 509.0)">e</text><text xml:space="preserve" font-family="CourierNewPS-ItalicMT" font-style="italic" font-size="37.0" fill="#D08E7D" transform="matrix(1.00, 0.00, -0.00, -1.00, 1365.8, 509.0)">n</text><text xml:space="preserve" font-family="CourierNewPS-ItalicMT" font-style="italic" font-size="37.0" fill="#D08E7D" transform="matrix(1.00, 0.00, -0.00, -1.00, 1388.0, 509.0)">c</text><text xml:space="preserve" font-family="CourierNewPS-ItalicMT" font-style="italic" font-size="37.0" fill="#D08E7D" transform="matrix(1.00, 0.00, -0.00, -1.00, 1410.2, 509.0)">e</text><text xml:space="preserve" font-family="CourierNewPS-ItalicMT" font-style="italic" font-size="37.0" fill="#D08E7D" transform="matrix(1.00, 0.00, -0.00, -1.00, 1432.4, 509.0)"> </text><text xml:space="preserve" font-family="CourierNewPS-ItalicMT" font-style="italic" font-size="37.0" fill="#D08E7D" transform="matrix(1.00, 0.00, -0.00, -1.00, 1454.6, 509.0)">s</text><text xml:space="preserve" font-family="CourierNewPS-ItalicMT" font-style="italic" font-size="37.0" fill="#D08E7D" transform="matrix(1.00, 0.00, -0.00, -1.00, 1476.8, 509.0)">e</text><text xml:space="preserve" font-family="CourierNewPS-ItalicMT" font-style="italic" font-size="37.0" fill="#D08E7D" transform="matrix(1.00, 0.00, -0.00, -1.00, 1499.0, 509.0)">m</text><text xml:space="preserve" font-family="CourierNewPS-ItalicMT" font-style="italic" font-size="37.0" fill="#D08E7D" transform="matrix(1.00, 0.00, -0.00, -1.00, 1521.2, 509.0)">a</text><text xml:space="preserve" font-family="CourierNewPS-ItalicMT" font-style="italic" font-size="37.0" fill="#D08E7D" transform="matrix(1.00, 0.00, -0.00, -1.00, 1543.4, 509.0)">t</text><text xml:space="preserve" font-family="CourierNewPS-ItalicMT" font-style="italic" font-size="37.0" fill="#D08E7D" transform="matrix(1.00, 0.00, -0.00, -1.00, 1565.7, 509.0)">i</text><text xml:space="preserve" font-family="CourierNewPS-ItalicMT" font-style="italic" font-size="37.0" fill="#D08E7D" transform="matrix(1.00, 0.00, -0.00, -1.00, 1587.9, 509.0)">c</text><text xml:space="preserve" font-family="CourierNewPS-ItalicMT" font-style="italic" font-size="37.0" fill="#D08E7D" transform="matrix(1.00, 0.00, -0.00, -1.00, 1610.1, 509.0)">s</text><text xml:space="preserve" font-family="CourierNewPSMT" font-size="37.0" fill="#000000" transform="matrix(1.00, 0.00, -0.00, -1.00, 1632.1, 509.0)"> </text><text xml:space="preserve" font-family="CourierNewPSMT" font-size="37.0" fill="#000000" transform="matrix(1.00, 0.00, -0.00, -1.00, 744.0, 467.0)"> </text><text xml:space="preserve" font-family="CourierNewPSMT" font-size="37.0" fill="#000000" transform="matrix(1.00, 0.00, -0.00, -1.00, 766.2, 467.0)"> </text><text xml:space="preserve" font-family="CourierNewPSMT" font-size="37.0" fill="#000000" transform="matrix(1.00, 0.00, -0.00, -1.00, 788.4, 467.0)"> </text><text xml:space="preserve" font-family="CourierNewPSMT" font-size="37.0" fill="#000000" transform="matrix(1.00, 0.00, -0.00, -1.00, 810.6, 467.0)"> </text><text xml:space="preserve" font-family="CourierNewPS-BoldMT" font-weight="bold" font-size="37.0" fill="#06E2E2" transform="matrix(1.00, 0.00, -0.00, -1.00, 832.8, 467.0)">r</text><text xml:space="preserve" font-family="CourierNewPS-BoldMT" font-weight="bold" font-size="37.0" fill="#06E2E2" transform="matrix(1.00, 0.00, -0.00, -1.00, 855.0, 467.0)">e</text><text xml:space="preserve" font-family="CourierNewPS-BoldMT" font-weight="bold" font-size="37.0" fill="#06E2E2" transform="matrix(1.00, 0.00, -0.00, -1.00, 877.2, 467.0)">t</text><text xml:space="preserve" font-family="CourierNewPS-BoldMT" font-weight="bold" font-size="37.0" fill="#06E2E2" transform="matrix(1.00, 0.00, -0.00, -1.00, 899.4, 467.0)">u</text><text xml:space="preserve" font-family="CourierNewPS-BoldMT" font-weight="bold" font-size="37.0" fill="#06E2E2" transform="matrix(1.00, 0.00, -0.00, -1.00, 921.6, 467.0)">r</text><text xml:space="preserve" font-family="CourierNewPS-BoldMT" font-weight="bold" font-size="37.0" fill="#06E2E2" transform="matrix(1.00, 0.00, -0.00, -1.00, 943.9, 467.0)">n</text><text xml:space="preserve" font-family="CourierNewPS-BoldMT" font-weight="bold" font-size="37.0" fill="#06E2E2" transform="matrix(1.00, 0.00, -0.00, -1.00, 966.1, 467.0)"> </text><text xml:space="preserve" font-family="CourierNewPS-BoldMT" font-weight="bold" font-size="37.0" fill="#06E2E2" transform="matrix(1.00, 0.00, -0.00, -1.00, 988.3, 467.0)">t</text><text xml:space="preserve" font-family="CourierNewPS-BoldMT" font-weight="bold" font-size="37.0" fill="#06E2E2" transform="matrix(1.00, 0.00, -0.00, -1.00, 1010.5, 467.0)">h</text><text xml:space="preserve" font-family="CourierNewPS-BoldMT" font-weight="bold" font-size="37.0" fill="#06E2E2" transform="matrix(1.00, 0.00, -0.00, -1.00, 1032.7, 467.0)">i</text><text xml:space="preserve" font-family="CourierNewPS-BoldMT" font-weight="bold" font-size="37.0" fill="#06E2E2" transform="matrix(1.00, 0.00, -0.00, -1.00, 1054.9, 467.0)">s</text><text xml:space="preserve" font-family="CourierNewPSMT" font-size="37.0" fill="#D5D0D0" transform="matrix(1.00, 0.00, -0.00, -1.00, 1077.1, 467.0)">.</text><text xml:space="preserve" font-family="CourierNewPSMT" font-size="37.0" fill="#22AFDE" transform="matrix(1.00, 0.00, -0.00, -1.00, 1099.3, 467.0)">s</text><text xml:space="preserve" font-family="CourierNewPSMT" font-size="37.0" fill="#22AFDE" transform="matrix(1.00, 0.00, -0.00, -1.00, 1121.5, 467.0)">t</text><text xml:space="preserve" font-family="CourierNewPSMT" font-size="37.0" fill="#22AFDE" transform="matrix(1.00, 0.00, -0.00, -1.00, 1143.7, 467.0)">a</text><text xml:space="preserve" font-family="CourierNewPSMT" font-size="37.0" fill="#22AFDE" transform="matrix(1.00, 0.00, -0.00, -1.00, 1165.9, 467.0)">l</text><text xml:space="preserve" font-family="CourierNewPSMT" font-size="37.0" fill="#22AFDE" transform="matrix(1.00, 0.00, -0.00, -1.00, 1188.1, 467.0)">l</text><text xml:space="preserve" font-family="CourierNewPSMT" font-size="37.0" fill="#22AFDE" transform="matrix(1.00, 0.00, -0.00, -1.00, 1210.3, 467.0)">s</text><text xml:space="preserve" font-family="CourierNewPSMT" font-size="37.0" fill="#D5D0D0" transform="matrix(1.00, 0.00, -0.00, -1.00, 1232.5, 467.0)">.</text><text xml:space="preserve" font-family="CourierNewPSMT" font-size="37.0" fill="#00EEE2" transform="matrix(1.00, 0.00, -0.00, -1.00, 1254.7, 467.0)">c</text><text xml:space="preserve" font-family="CourierNewPSMT" font-size="37.0" fill="#00EEE2" transform="matrix(1.00, 0.00, -0.00, -1.00, 1276.9, 467.0)">o</text><text xml:space="preserve" font-family="CourierNewPSMT" font-size="37.0" fill="#00EEE2" transform="matrix(1.00, 0.00, -0.00, -1.00, 1299.1, 467.0)">n</text><text xml:space="preserve" font-family="CourierNewPSMT" font-size="37.0" fill="#00EEE2" transform="matrix(1.00, 0.00, -0.00, -1.00, 1321.3, 467.0)">c</text><text xml:space="preserve" font-family="CourierNewPSMT" font-size="37.0" fill="#00EEE2" transform="matrix(1.00, 0.00, -0.00, -1.00, 1343.5, 467.0)">a</text><text xml:space="preserve" font-family="CourierNewPSMT" font-size="37.0" fill="#00EEE2" transform="matrix(1.00, 0.00, -0.00, -1.00, 1365.7, 467.0)">t</text><text xml:space="preserve" font-family="CourierNewPSMT" font-size="37.0" fill="#D5D0D0" transform="matrix(1.00, 0.00, -0.00, -1.00, 1387.9, 467.0)">(</text><text xml:space="preserve" font-family="CourierNewPSMT" font-size="37.0" fill="#D5D0D0" transform="matrix(1.00, 0.00, -0.00, -1.00, 1410.1, 467.0)">)</text><text xml:space="preserve" font-family="CourierNewPSMT" font-size="37.0" fill="#000000" transform="matrix(1.00, 0.00, -0.00, -1.00, 1432.3, 467.0)"> </text><text xml:space="preserve" font-family="CourierNewPSMT" font-size="37.0" fill="#000000" transform="matrix(1.00, 0.00, -0.00, -1.00, 744.0, 425.0)"> </text><text xml:space="preserve" font-family="CourierNewPSMT" font-size="37.0" fill="#000000" transform="matrix(1.00, 0.00, -0.00, -1.00, 766.2, 425.0)"> </text><text xml:space="preserve" font-family="CourierNewPSMT" font-size="37.0" fill="#D5D0D0" transform="matrix(1.00, 0.00, -0.00, -1.00, 788.4, 425.0)">}</text><text xml:space="preserve" font-family="CourierNewPSMT" font-size="37.0" fill="#D5D0D0" transform="matrix(1.00, 0.00, -0.00, -1.00, 810.6, 425.0)"> </text><text xml:space="preserve" font-family="CourierNewPSMT" font-size="37.0" fill="#D5D0D0" transform="matrix(1.00, 0.00, -0.00, -1.00, 744.0, 341.0)"> </text><text xml:space="preserve" font-family="CourierNewPSMT" font-size="37.0" fill="#D5D0D0" transform="matrix(1.00, 0.00, -0.00, -1.00, 766.2, 341.0)"> </text><text xml:space="preserve" font-family="CourierNewPSMT" font-size="37.0" fill="#D5D0D0" transform="matrix(1.00, 0.00, -0.00, -1.00, 788.4, 341.0)">.</text><text xml:space="preserve" font-family="CourierNewPSMT" font-size="37.0" fill="#D5D0D0" transform="matrix(1.00, 0.00, -0.00, -1.00, 810.6, 341.0)">.</text><text xml:space="preserve" font-family="CourierNewPSMT" font-size="37.0" fill="#D5D0D0" transform="matrix(1.00, 0.00, -0.00, -1.00, 832.8, 341.0)">.</text><text xml:space="preserve" font-family="CourierNewPSMT" font-size="37.0" fill="#D5D0D0" transform="matrix(1.00, 0.00, -0.00, -1.00, 855.0, 341.0)"> </text></g></svg>