<?xml version="1.0" encoding="UTF-8" standalone="no"?><svg xmlns="http://www.w3.org/2000/svg" xmlns:xlink="http://www.w3.org/1999/xlink" clip-rule="evenodd" stroke-miterlimit="4.00" viewBox="0 0 1920 1080"><desc>SVG generated by Keynote</desc><defs></defs><g transform="matrix(1.00, 0.00, -0.00, -1.00, 0.0, 1080.0)"><g><clipPath id="clip-83"><path d="M 0.0 1080.0 L 1920.0 1080.0 L 1920.0 0.0 L 0.0 0.0 Z M 0.0 1080.0 "></path></clipPath><g clip-path="url(#clip-83)"><image xlink:href="../../5F235D52-7206-45E1-A186-866C578AD786/assets/8D4EDCBCCDF0C6FB622C1077A93EEDFA.jpeg" width="1366.00" height="729.00" transform="matrix(1.48, 0.00, -0.00, -1.48, -51.5, 1080.0)"></image><path d="M 0.0 1080.0 L 1920.0 1080.0 L 1920.0 0.0 L 0.0 0.0 Z M 0.0 1080.0 " fill="#252E35" fill-opacity="0.50"></path></g></g><text xml:space="preserve" font-family="SqoreSans-Bold" font-weight="bold" font-size="12.0" fill="#FEFFFF" transform="matrix(1.00, 0.00, -0.00, -1.00, 1683.1, 41.0)"></text><text xml:space="preserve" font-family="SqoreSans-Bold" font-weight="bold" font-size="12.0" fill="#FEFFFF" transform="matrix(1.00, 0.00, -0.00, -1.00, 1697.5, 41.0)"> </text><text xml:space="preserve" font-family="SqoreSans-Bold" font-weight="bold" font-size="12.0" fill="#FEFFFF" transform="matrix(1.00, 0.00, -0.00, -1.00, 1700.6, 41.0)">S</text><text xml:space="preserve" font-family="SqoreSans-Bold" font-weight="bold" font-size="12.0" fill="#FEFFFF" transform="matrix(1.00, 0.00, -0.00, -1.00, 1707.9, 41.0)">q</text><text xml:space="preserve" font-family="SqoreSans-Bold" font-weight="bold" font-size="12.0" fill="#FEFFFF" transform="matrix(1.00, 0.00, -0.00, -1.00, 1715.2, 41.0)">o</text><text xml:space="preserve" font-family="SqoreSans-Bold" font-weight="bold" font-size="12.0" fill="#FEFFFF" transform="matrix(1.00, 0.00, -0.00, -1.00, 1722.8, 41.0)">r</text><text xml:space="preserve" font-family="SqoreSans-Bold" font-weight="bold" font-size="12.0" fill="#FEFFFF" transform="matrix(1.00, 0.00, -0.00, -1.00, 1727.5, 41.0)">e</text><text xml:space="preserve" font-family="SqoreSans-Bold" font-weight="bold" font-size="12.0" fill="#FEFFFF" transform="matrix(1.00, 0.00, -0.00, -1.00, 1733.5, 41.0)">®</text><text xml:space="preserve" font-family="SqoreSans-Bold" font-weight="bold" font-size="12.0" fill="#FEFFFF" transform="matrix(1.00, 0.00, -0.00, -1.00, 1735.6, 41.0)"> </text><text xml:space="preserve" font-family="SqoreSans-Regular" font-size="12.0" fill="#FEFFFF" transform="matrix(1.00, 0.00, -0.00, -1.00, 1738.7, 41.0)">E</text><text xml:space="preserve" font-family="SqoreSans-Regular" font-size="12.0" fill="#FEFFFF" transform="matrix(1.00, 0.00, -0.00, -1.00, 1745.7, 41.0)">S</text><text xml:space="preserve" font-family="SqoreSans-Regular" font-size="12.0" fill="#FEFFFF" transform="matrix(1.00, 0.00, -0.00, -1.00, 1752.6, 41.0)">2</text><text xml:space="preserve" font-family="SqoreSans-Regular" font-size="12.0" fill="#FEFFFF" transform="matrix(1.00, 0.00, -0.00, -1.00, 1760.4, 41.0)">0</text><text xml:space="preserve" font-family="SqoreSans-Regular" font-size="12.0" fill="#FEFFFF" transform="matrix(1.00, 0.00, -0.00, -1.00, 1768.2, 41.0)">1</text><text xml:space="preserve" font-family="SqoreSans-Regular" font-size="12.0" fill="#FEFFFF" transform="matrix(1.00, 0.00, -0.00, -1.00, 1776.0, 41.0)">6</text><text xml:space="preserve" font-family="SqoreSans-Regular" font-size="12.0" fill="#FEFFFF" transform="matrix(1.00, 0.00, -0.00, -1.00, 1783.8, 41.0)"> </text><text xml:space="preserve" font-family="SqoreSans-Regular" font-size="12.0" fill="#FEFFFF" transform="matrix(1.00, 0.00, -0.00, -1.00, 1787.2, 41.0)">C</text><text xml:space="preserve" font-family="SqoreSans-Regular" font-size="12.0" fill="#FEFFFF" transform="matrix(1.00, 0.00, -0.00, -1.00, 1795.1, 41.0)">l</text><text xml:space="preserve" font-family="SqoreSans-Regular" font-size="12.0" fill="#FEFFFF" transform="matrix(1.00, 0.00, -0.00, -1.00, 1798.2, 41.0)">a</text><text xml:space="preserve" font-family="SqoreSans-Regular" font-size="12.0" fill="#FEFFFF" transform="matrix(1.00, 0.00, -0.00, -1.00, 1804.9, 41.0)">s</text><text xml:space="preserve" font-family="SqoreSans-Regular" font-size="12.0" fill="#FEFFFF" transform="matrix(1.00, 0.00, -0.00, -1.00, 1810.6, 41.0)">s</text><text xml:space="preserve" font-family="SqoreSans-Regular" font-size="12.0" fill="#FEFFFF" transform="matrix(1.00, 0.00, -0.00, -1.00, 1816.4, 41.0)">e</text><text xml:space="preserve" font-family="SqoreSans-Regular" font-size="12.0" fill="#FEFFFF" transform="matrix(1.00, 0.00, -0.00, -1.00, 1823.4, 41.0)">s</text><image xlink:href="../../5F235D52-7206-45E1-A186-866C578AD786/assets/ABF6AF48D909463B050F6AD9984B2774.png" width="227.00" height="57.00" transform="matrix(1.00, 0.00, -0.00, -1.00, 164.0, 697.0)"></image><text xml:space="preserve" font-family="SqoreSans-Bold" font-weight="bold" font-size="54.0" fill="#FEFFFF" transform="matrix(1.00, 0.00, -0.00, -1.00, 164.0, 656.0)">T</text><text xml:space="preserve" font-family="SqoreSans-Bold" font-weight="bold" font-size="54.0" fill="#FEFFFF" transform="matrix(1.00, 0.00, -0.00, -1.00, 199.9, 656.0)">h</text><text xml:space="preserve" font-family="SqoreSans-Bold" font-weight="bold" font-size="54.0" fill="#FEFFFF" transform="matrix(1.00, 0.00, -0.00, -1.00, 232.6, 656.0)">e</text><text xml:space="preserve" font-family="SqoreSans-Bold" font-weight="bold" font-size="54.0" fill="#FEFFFF" transform="matrix(1.00, 0.00, -0.00, -1.00, 263.5, 656.0)"> </text><text xml:space="preserve" font-family="SqoreSans-Bold" font-weight="bold" font-size="54.0" fill="#FEFFFF" transform="matrix(1.00, 0.00, -0.00, -1.00, 277.6, 656.0)">p</text><text xml:space="preserve" font-family="SqoreSans-Bold" font-weight="bold" font-size="54.0" fill="#FEFFFF" transform="matrix(1.00, 0.00, -0.00, -1.00, 310.5, 656.0)">l</text><text xml:space="preserve" font-family="SqoreSans-Bold" font-weight="bold" font-size="54.0" fill="#FEFFFF" transform="matrix(1.00, 0.00, -0.00, -1.00, 326.7, 656.0)">a</text><text xml:space="preserve" font-family="SqoreSans-Bold" font-weight="bold" font-size="54.0" fill="#FEFFFF" transform="matrix(1.00, 0.00, -0.00, -1.00, 358.5, 656.0)">n</text><image xlink:href="B300762E705199F2C4D8AAFAE34C516E.png" width="323.00" height="33.00" transform="matrix(1.00, 0.00, -0.00, -1.00, 117.0, 592.0)"></image><text xml:space="preserve" font-family="SqoreSans-Regular" font-size="37.0" fill="#FEFFFF" transform="matrix(1.00, 0.00, -0.00, -1.00, 116.0, 564.0)">E</text><text xml:space="preserve" font-family="SqoreSans-Regular" font-size="37.0" fill="#FEFFFF" transform="matrix(1.00, 0.00, -0.00, -1.00, 137.5, 564.0)">S</text><text xml:space="preserve" font-family="SqoreSans-Regular" font-size="37.0" fill="#FEFFFF" transform="matrix(1.00, 0.00, -0.00, -1.00, 158.8, 564.0)">5</text><text xml:space="preserve" font-family="SqoreSans-Regular" font-size="37.0" fill="#FEFFFF" transform="matrix(1.00, 0.00, -0.00, -1.00, 182.9, 564.0)"> </text><text xml:space="preserve" font-family="SqoreSans-Regular" font-size="37.0" fill="#FEFFFF" transform="matrix(1.00, 0.00, -0.00, -1.00, 193.5, 564.0)">v</text><text xml:space="preserve" font-family="SqoreSans-Regular" font-size="37.0" fill="#FEFFFF" transform="matrix(1.00, 0.00, -0.00, -1.00, 212.1, 564.0)">a</text><text xml:space="preserve" font-family="SqoreSans-Regular" font-size="37.0" fill="#FEFFFF" transform="matrix(1.00, 0.00, -0.00, -1.00, 232.9, 564.0)">n</text><text xml:space="preserve" font-family="SqoreSans-Regular" font-size="37.0" fill="#FEFFFF" transform="matrix(1.00, 0.00, -0.00, -1.00, 255.0, 564.0)">i</text><text xml:space="preserve" font-family="SqoreSans-Regular" font-size="37.0" fill="#FEFFFF" transform="matrix(1.00, 0.00, -0.00, -1.00, 264.7, 564.0)">l</text><text xml:space="preserve" font-family="SqoreSans-Regular" font-size="37.0" fill="#FEFFFF" transform="matrix(1.00, 0.00, -0.00, -1.00, 274.2, 564.0)">l</text><text xml:space="preserve" font-family="SqoreSans-Regular" font-size="37.0" fill="#FEFFFF" transform="matrix(1.00, 0.00, -0.00, -1.00, 283.8, 564.0)">a</text><text xml:space="preserve" font-family="SqoreSans-Regular" font-size="37.0" fill="#FEFFFF" transform="matrix(1.00, 0.00, -0.00, -1.00, 304.5, 564.0)"> </text><text xml:space="preserve" font-family="SqoreSans-Regular" font-size="37.0" fill="#FEFFFF" transform="matrix(1.00, 0.00, -0.00, -1.00, 314.9, 564.0)">c</text><text xml:space="preserve" font-family="SqoreSans-Regular" font-size="37.0" fill="#FEFFFF" transform="matrix(1.00, 0.00, -0.00, -1.00, 334.7, 564.0)">l</text><text xml:space="preserve" font-family="SqoreSans-Regular" font-size="37.0" fill="#FEFFFF" transform="matrix(1.00, 0.00, -0.00, -1.00, 344.2, 564.0)">a</text><text xml:space="preserve" font-family="SqoreSans-Regular" font-size="37.0" fill="#FEFFFF" transform="matrix(1.00, 0.00, -0.00, -1.00, 365.0, 564.0)">s</text><text xml:space="preserve" font-family="SqoreSans-Regular" font-size="37.0" fill="#FEFFFF" transform="matrix(1.00, 0.00, -0.00, -1.00, 382.6, 564.0)">s</text><text xml:space="preserve" font-family="SqoreSans-Regular" font-size="37.0" fill="#FEFFFF" transform="matrix(1.00, 0.00, -0.00, -1.00, 400.2, 564.0)">e</text><text xml:space="preserve" font-family="SqoreSans-Regular" font-size="37.0" fill="#FEFFFF" transform="matrix(1.00, 0.00, -0.00, -1.00, 421.8, 564.0)">s</text><image xlink:href="../../53521E24-A7C5-4733-BDC9-1DA6C8287B92/assets/8209D2AB0BC55B365B68091B3A44C00B.png" width="240.00" height="40.00" transform="matrix(1.00, 0.00, -0.00, -1.00, 158.0, 530.0)"></image><text xml:space="preserve" font-family="SqoreSans-Regular" font-size="37.0" fill="#FEFFFF" transform="matrix(1.00, 0.00, -0.00, -1.00, 158.0, 502.0)">O</text><text xml:space="preserve" font-family="SqoreSans-Regular" font-size="37.0" fill="#FEFFFF" transform="matrix(1.00, 0.00, -0.00, -1.00, 187.6, 502.0)">b</text><text xml:space="preserve" font-family="SqoreSans-Regular" font-size="37.0" fill="#FEFFFF" transform="matrix(1.00, 0.00, -0.00, -1.00, 210.0, 502.0)">j</text><text xml:space="preserve" font-family="SqoreSans-Regular" font-size="37.0" fill="#FEFFFF" transform="matrix(1.00, 0.00, -0.00, -1.00, 220.0, 502.0)">e</text><text xml:space="preserve" font-family="SqoreSans-Regular" font-size="37.0" fill="#FEFFFF" transform="matrix(1.00, 0.00, -0.00, -1.00, 241.6, 502.0)">c</text><text xml:space="preserve" font-family="SqoreSans-Regular" font-size="37.0" fill="#FEFFFF" transform="matrix(1.00, 0.00, -0.00, -1.00, 261.5, 502.0)">t</text><text xml:space="preserve" font-family="SqoreSans-Regular" font-size="37.0" fill="#FEFFFF" transform="matrix(1.00, 0.00, -0.00, -1.00, 275.6, 502.0)">.</text><text xml:space="preserve" font-family="SqoreSans-Regular" font-size="37.0" fill="#FEFFFF" transform="matrix(1.00, 0.00, -0.00, -1.00, 287.4, 502.0)">c</text><text xml:space="preserve" font-family="SqoreSans-Regular" font-size="37.0" fill="#FEFFFF" transform="matrix(1.00, 0.00, -0.00, -1.00, 307.1, 502.0)">r</text><text xml:space="preserve" font-family="SqoreSans-Regular" font-size="37.0" fill="#FEFFFF" transform="matrix(1.00, 0.00, -0.00, -1.00, 320.6, 502.0)">e</text><text xml:space="preserve" font-family="SqoreSans-Regular" font-size="37.0" fill="#FEFFFF" transform="matrix(1.00, 0.00, -0.00, -1.00, 342.2, 502.0)">a</text><text xml:space="preserve" font-family="SqoreSans-Regular" font-size="37.0" fill="#FEFFFF" transform="matrix(1.00, 0.00, -0.00, -1.00, 362.6, 502.0)">t</text><text xml:space="preserve" font-family="SqoreSans-Regular" font-size="37.0" fill="#FEFFFF" transform="matrix(1.00, 0.00, -0.00, -1.00, 375.9, 502.0)">e</text><image xlink:href="../../53521E24-A7C5-4733-BDC9-1DA6C8287B92/assets/B02B18873D6AA0116DA0ACF2A01073E5.png" width="288.00" height="40.00" transform="matrix(1.00, 0.00, -0.00, -1.00, 135.0, 469.0)"></image><text xml:space="preserve" font-family="SqoreSans-Regular" font-size="37.0" fill="#FEFFFF" transform="matrix(1.00, 0.00, -0.00, -1.00, 135.0, 441.0)">O</text><text xml:space="preserve" font-family="SqoreSans-Regular" font-size="37.0" fill="#FEFFFF" transform="matrix(1.00, 0.00, -0.00, -1.00, 164.6, 441.0)">b</text><text xml:space="preserve" font-family="SqoreSans-Regular" font-size="37.0" fill="#FEFFFF" transform="matrix(1.00, 0.00, -0.00, -1.00, 187.0, 441.0)">j</text><text xml:space="preserve" font-family="SqoreSans-Regular" font-size="37.0" fill="#FEFFFF" transform="matrix(1.00, 0.00, -0.00, -1.00, 197.0, 441.0)">e</text><text xml:space="preserve" font-family="SqoreSans-Regular" font-size="37.0" fill="#FEFFFF" transform="matrix(1.00, 0.00, -0.00, -1.00, 218.6, 441.0)">c</text><text xml:space="preserve" font-family="SqoreSans-Regular" font-size="37.0" fill="#FEFFFF" transform="matrix(1.00, 0.00, -0.00, -1.00, 238.5, 441.0)">t</text><text xml:space="preserve" font-family="SqoreSans-Regular" font-size="37.0" fill="#FEFFFF" transform="matrix(1.00, 0.00, -0.00, -1.00, 252.6, 441.0)"> </text><text xml:space="preserve" font-family="SqoreSans-Regular" font-size="37.0" fill="#FEFFFF" transform="matrix(1.00, 0.00, -0.00, -1.00, 263.3, 441.0)">i</text><text xml:space="preserve" font-family="SqoreSans-Regular" font-size="37.0" fill="#FEFFFF" transform="matrix(1.00, 0.00, -0.00, -1.00, 273.0, 441.0)">n</text><text xml:space="preserve" font-family="SqoreSans-Regular" font-size="37.0" fill="#FEFFFF" transform="matrix(1.00, 0.00, -0.00, -1.00, 295.1, 441.0)">i</text><text xml:space="preserve" font-family="SqoreSans-Regular" font-size="37.0" fill="#FEFFFF" transform="matrix(1.00, 0.00, -0.00, -1.00, 304.8, 441.0)">t</text><text xml:space="preserve" font-family="SqoreSans-Regular" font-size="37.0" fill="#FEFFFF" transform="matrix(1.00, 0.00, -0.00, -1.00, 319.0, 441.0)">i</text><text xml:space="preserve" font-family="SqoreSans-Regular" font-size="37.0" fill="#FEFFFF" transform="matrix(1.00, 0.00, -0.00, -1.00, 328.7, 441.0)">a</text><text xml:space="preserve" font-family="SqoreSans-Regular" font-size="37.0" fill="#FEFFFF" transform="matrix(1.00, 0.00, -0.00, -1.00, 349.5, 441.0)">l</text><text xml:space="preserve" font-family="SqoreSans-Regular" font-size="37.0" fill="#FEFFFF" transform="matrix(1.00, 0.00, -0.00, -1.00, 359.0, 441.0)">i</text><text xml:space="preserve" font-family="SqoreSans-Regular" font-size="37.0" fill="#FEFFFF" transform="matrix(1.00, 0.00, -0.00, -1.00, 368.7, 441.0)">z</text><text xml:space="preserve" font-family="SqoreSans-Regular" font-size="37.0" fill="#FEFFFF" transform="matrix(1.00, 0.00, -0.00, -1.00, 385.7, 441.0)">e</text><text xml:space="preserve" font-family="SqoreSans-Regular" font-size="37.0" fill="#FEFFFF" transform="matrix(1.00, 0.00, -0.00, -1.00, 407.4, 441.0)">r</text><image xlink:href="../../53521E24-A7C5-4733-BDC9-1DA6C8287B92/assets/DF95EE03F114DC100C99685B8AAD9907.png" width="274.00" height="33.00" transform="matrix(1.00, 0.00, -0.00, -1.00, 142.0, 407.0)"></image><text xml:space="preserve" font-family="SqoreSans-Regular" font-size="37.0" fill="#FEFFFF" transform="matrix(1.00, 0.00, -0.00, -1.00, 141.0, 379.0)">E</text><text xml:space="preserve" font-family="SqoreSans-Regular" font-size="37.0" fill="#FEFFFF" transform="matrix(1.00, 0.00, -0.00, -1.00, 162.5, 379.0)">S</text><text xml:space="preserve" font-family="SqoreSans-Regular" font-size="37.0" fill="#FEFFFF" transform="matrix(1.00, 0.00, -0.00, -1.00, 183.8, 379.0)">2</text><text xml:space="preserve" font-family="SqoreSans-Regular" font-size="37.0" fill="#FEFFFF" transform="matrix(1.00, 0.00, -0.00, -1.00, 207.9, 379.0)">0</text><text xml:space="preserve" font-family="SqoreSans-Regular" font-size="37.0" fill="#FEFFFF" transform="matrix(1.00, 0.00, -0.00, -1.00, 231.9, 379.0)">1</text><text xml:space="preserve" font-family="SqoreSans-Regular" font-size="37.0" fill="#FEFFFF" transform="matrix(1.00, 0.00, -0.00, -1.00, 256.0, 379.0)">5</text><text xml:space="preserve" font-family="SqoreSans-Regular" font-size="37.0" fill="#FEFFFF" transform="matrix(1.00, 0.00, -0.00, -1.00, 280.0, 379.0)"> </text><text xml:space="preserve" font-family="SqoreSans-Regular" font-size="37.0" fill="#FEFFFF" transform="matrix(1.00, 0.00, -0.00, -1.00, 290.4, 379.0)">c</text><text xml:space="preserve" font-family="SqoreSans-Regular" font-size="37.0" fill="#FEFFFF" transform="matrix(1.00, 0.00, -0.00, -1.00, 310.2, 379.0)">l</text><text xml:space="preserve" font-family="SqoreSans-Regular" font-size="37.0" fill="#FEFFFF" transform="matrix(1.00, 0.00, -0.00, -1.00, 319.7, 379.0)">a</text><text xml:space="preserve" font-family="SqoreSans-Regular" font-size="37.0" fill="#FEFFFF" transform="matrix(1.00, 0.00, -0.00, -1.00, 340.5, 379.0)">s</text><text xml:space="preserve" font-family="SqoreSans-Regular" font-size="37.0" fill="#FEFFFF" transform="matrix(1.00, 0.00, -0.00, -1.00, 358.1, 379.0)">s</text><text xml:space="preserve" font-family="SqoreSans-Regular" font-size="37.0" fill="#FEFFFF" transform="matrix(1.00, 0.00, -0.00, -1.00, 375.7, 379.0)">e</text><text xml:space="preserve" font-family="SqoreSans-Regular" font-size="37.0" fill="#FEFFFF" transform="matrix(1.00, 0.00, -0.00, -1.00, 397.3, 379.0)">s</text><text xml:space="preserve" font-family="SqoreSans-Bold" font-weight="bold" font-size="12.0" fill="#FEFFFF" transform="matrix(1.00, 0.00, -0.00, -1.00, 1871.0, 41.0)">3</text></g></svg>