<?xml version="1.0" encoding="UTF-8" standalone="no"?><svg xmlns="http://www.w3.org/2000/svg" xmlns:xlink="http://www.w3.org/1999/xlink" clip-rule="evenodd" stroke-miterlimit="4.00" viewBox="0 0 1920 1080"><desc>SVG generated by Keynote</desc><defs></defs><g transform="matrix(1.00, 0.00, -0.00, -1.00, 0.0, 1080.0)"><g><clipPath id="clip-81"><path d="M 0.0 1080.0 L 1920.0 1080.0 L 1920.0 0.0 L 0.0 0.0 Z M 0.0 1080.0 "></path></clipPath><g clip-path="url(#clip-81)"><image xlink:href="8D4EDCBCCDF0C6FB622C1077A93EEDFA.jpeg" width="1366.00" height="729.00" transform="matrix(1.48, 0.00, -0.00, -1.48, -51.5, 1080.0)"></image><path d="M 0.0 1080.0 L 1920.0 1080.0 L 1920.0 0.0 L 0.0 0.0 Z M 0.0 1080.0 " fill="#252E35" fill-opacity="0.50"></path></g></g><text xml:space="preserve" font-family="SqoreSans-Bold" font-weight="bold" font-size="12.0" fill="#FEFFFF" transform="matrix(1.00, 0.00, -0.00, -1.00, 1683.1, 41.0)"></text><text xml:space="preserve" font-family="SqoreSans-Bold" font-weight="bold" font-size="12.0" fill="#FEFFFF" transform="matrix(1.00, 0.00, -0.00, -1.00, 1697.5, 41.0)"> </text><text xml:space="preserve" font-family="SqoreSans-Bold" font-weight="bold" font-size="12.0" fill="#FEFFFF" transform="matrix(1.00, 0.00, -0.00, -1.00, 1700.6, 41.0)">S</text><text xml:space="preserve" font-family="SqoreSans-Bold" font-weight="bold" font-size="12.0" fill="#FEFFFF" transform="matrix(1.00, 0.00, -0.00, -1.00, 1707.9, 41.0)">q</text><text xml:space="preserve" font-family="SqoreSans-Bold" font-weight="bold" font-size="12.0" fill="#FEFFFF" transform="matrix(1.00, 0.00, -0.00, -1.00, 1715.2, 41.0)">o</text><text xml:space="preserve" font-family="SqoreSans-Bold" font-weight="bold" font-size="12.0" fill="#FEFFFF" transform="matrix(1.00, 0.00, -0.00, -1.00, 1722.8, 41.0)">r</text><text xml:space="preserve" font-family="SqoreSans-Bold" font-weight="bold" font-size="12.0" fill="#FEFFFF" transform="matrix(1.00, 0.00, -0.00, -1.00, 1727.5, 41.0)">e</text><text xml:space="preserve" font-family="SqoreSans-Bold" font-weight="bold" font-size="12.0" fill="#FEFFFF" transform="matrix(1.00, 0.00, -0.00, -1.00, 1733.5, 41.0)">®</text><text xml:space="preserve" font-family="SqoreSans-Bold" font-weight="bold" font-size="12.0" fill="#FEFFFF" transform="matrix(1.00, 0.00, -0.00, -1.00, 1735.6, 41.0)"> </text><text xml:space="preserve" font-family="SqoreSans-Regular" font-size="12.0" fill="#FEFFFF" transform="matrix(1.00, 0.00, -0.00, -1.00, 1738.7, 41.0)">E</text><text xml:space="preserve" font-family="SqoreSans-Regular" font-size="12.0" fill="#FEFFFF" transform="matrix(1.00, 0.00, -0.00, -1.00, 1745.7, 41.0)">S</text><text xml:space="preserve" font-family="SqoreSans-Regular" font-size="12.0" fill="#FEFFFF" transform="matrix(1.00, 0.00, -0.00, -1.00, 1752.6, 41.0)">2</text><text xml:space="preserve" font-family="SqoreSans-Regular" font-size="12.0" fill="#FEFFFF" transform="matrix(1.00, 0.00, -0.00, -1.00, 1760.4, 41.0)">0</text><text xml:space="preserve" font-family="SqoreSans-Regular" font-size="12.0" fill="#FEFFFF" transform="matrix(1.00, 0.00, -0.00, -1.00, 1768.2, 41.0)">1</text><text xml:space="preserve" font-family="SqoreSans-Regular" font-size="12.0" fill="#FEFFFF" transform="matrix(1.00, 0.00, -0.00, -1.00, 1776.0, 41.0)">6</text><text xml:space="preserve" font-family="SqoreSans-Regular" font-size="12.0" fill="#FEFFFF" transform="matrix(1.00, 0.00, -0.00, -1.00, 1783.8, 41.0)"> </text><text xml:space="preserve" font-family="SqoreSans-Regular" font-size="12.0" fill="#FEFFFF" transform="matrix(1.00, 0.00, -0.00, -1.00, 1787.2, 41.0)">C</text><text xml:space="preserve" font-family="SqoreSans-Regular" font-size="12.0" fill="#FEFFFF" transform="matrix(1.00, 0.00, -0.00, -1.00, 1795.1, 41.0)">l</text><text xml:space="preserve" font-family="SqoreSans-Regular" font-size="12.0" fill="#FEFFFF" transform="matrix(1.00, 0.00, -0.00, -1.00, 1798.2, 41.0)">a</text><text xml:space="preserve" font-family="SqoreSans-Regular" font-size="12.0" fill="#FEFFFF" transform="matrix(1.00, 0.00, -0.00, -1.00, 1804.9, 41.0)">s</text><text xml:space="preserve" font-family="SqoreSans-Regular" font-size="12.0" fill="#FEFFFF" transform="matrix(1.00, 0.00, -0.00, -1.00, 1810.6, 41.0)">s</text><text xml:space="preserve" font-family="SqoreSans-Regular" font-size="12.0" fill="#FEFFFF" transform="matrix(1.00, 0.00, -0.00, -1.00, 1816.4, 41.0)">e</text><text xml:space="preserve" font-family="SqoreSans-Regular" font-size="12.0" fill="#FEFFFF" transform="matrix(1.00, 0.00, -0.00, -1.00, 1823.4, 41.0)">s</text><image xlink:href="ABF6AF48D909463B050F6AD9984B2774.png" width="227.00" height="57.00" transform="matrix(1.00, 0.00, -0.00, -1.00, 846.0, 698.0)"></image><text xml:space="preserve" font-family="SqoreSans-Bold" font-weight="bold" font-size="54.0" fill="#FEFFFF" transform="matrix(1.00, 0.00, -0.00, -1.00, 846.0, 657.0)">T</text><text xml:space="preserve" font-family="SqoreSans-Bold" font-weight="bold" font-size="54.0" fill="#FEFFFF" transform="matrix(1.00, 0.00, -0.00, -1.00, 881.9, 657.0)">h</text><text xml:space="preserve" font-family="SqoreSans-Bold" font-weight="bold" font-size="54.0" fill="#FEFFFF" transform="matrix(1.00, 0.00, -0.00, -1.00, 914.6, 657.0)">e</text><text xml:space="preserve" font-family="SqoreSans-Bold" font-weight="bold" font-size="54.0" fill="#FEFFFF" transform="matrix(1.00, 0.00, -0.00, -1.00, 945.5, 657.0)"> </text><text xml:space="preserve" font-family="SqoreSans-Bold" font-weight="bold" font-size="54.0" fill="#FEFFFF" transform="matrix(1.00, 0.00, -0.00, -1.00, 959.6, 657.0)">p</text><text xml:space="preserve" font-family="SqoreSans-Bold" font-weight="bold" font-size="54.0" fill="#FEFFFF" transform="matrix(1.00, 0.00, -0.00, -1.00, 992.5, 657.0)">l</text><text xml:space="preserve" font-family="SqoreSans-Bold" font-weight="bold" font-size="54.0" fill="#FEFFFF" transform="matrix(1.00, 0.00, -0.00, -1.00, 1008.7, 657.0)">a</text><text xml:space="preserve" font-family="SqoreSans-Bold" font-weight="bold" font-size="54.0" fill="#FEFFFF" transform="matrix(1.00, 0.00, -0.00, -1.00, 1040.5, 657.0)">n</text><text xml:space="preserve" font-family="SqoreSans-Bold" font-weight="bold" font-size="12.0" fill="#FEFFFF" transform="matrix(1.00, 0.00, -0.00, -1.00, 1871.0, 41.0)">3</text></g></svg>