<?xml version="1.0" encoding="UTF-8" standalone="no"?><svg xmlns="http://www.w3.org/2000/svg" xmlns:xlink="http://www.w3.org/1999/xlink" clip-rule="evenodd" stroke-miterlimit="4.00" viewBox="0 0 1920 1080"><desc>SVG generated by Keynote</desc><defs></defs><g transform="matrix(1.00, 0.00, -0.00, -1.00, 0.0, 1080.0)"><path d="M 0.0 1080.0 L 1920.0 1080.0 L 1920.0 0.0 L 0.0 0.0 Z M 0.0 1080.0 " fill="#FEFFFF"></path><text xml:space="preserve" font-family="SqoreSans-Bold" font-weight="bold" font-size="12.0" fill="#FEFFFF" transform="matrix(1.00, 0.00, -0.00, -1.00, 1552.0, 40.5)"></text><text xml:space="preserve" font-family="SqoreSans-Bold" font-weight="bold" font-size="12.0" fill="#FEFFFF" transform="matrix(1.00, 0.00, -0.00, -1.00, 1566.4, 40.5)"> </text><text xml:space="preserve" font-family="SqoreSans-Bold" font-weight="bold" font-size="12.0" fill="#FEFFFF" transform="matrix(1.00, 0.00, -0.00, -1.00, 1569.5, 40.5)">S</text><text xml:space="preserve" font-family="SqoreSans-Bold" font-weight="bold" font-size="12.0" fill="#FEFFFF" transform="matrix(1.00, 0.00, -0.00, -1.00, 1576.8, 40.5)">q</text><text xml:space="preserve" font-family="SqoreSans-Bold" font-weight="bold" font-size="12.0" fill="#FEFFFF" transform="matrix(1.00, 0.00, -0.00, -1.00, 1584.2, 40.5)">o</text><text xml:space="preserve" font-family="SqoreSans-Bold" font-weight="bold" font-size="12.0" fill="#FEFFFF" transform="matrix(1.00, 0.00, -0.00, -1.00, 1591.7, 40.5)">r</text><text xml:space="preserve" font-family="SqoreSans-Bold" font-weight="bold" font-size="12.0" fill="#FEFFFF" transform="matrix(1.00, 0.00, -0.00, -1.00, 1596.5, 40.5)">e</text><text xml:space="preserve" font-family="SqoreSans-Bold" font-weight="bold" font-size="12.0" fill="#FEFFFF" transform="matrix(1.00, 0.00, -0.00, -1.00, 1602.4, 40.5)">®</text><text xml:space="preserve" font-family="SqoreSans-Bold" font-weight="bold" font-size="12.0" fill="#FEFFFF" transform="matrix(1.00, 0.00, -0.00, -1.00, 1604.5, 40.5)"> </text><text xml:space="preserve" font-family="SqoreSans-Regular" font-size="12.0" fill="#FEFFFF" transform="matrix(1.00, 0.00, -0.00, -1.00, 1607.6, 40.5)">C</text><text xml:space="preserve" font-family="SqoreSans-Regular" font-size="12.0" fill="#FEFFFF" transform="matrix(1.00, 0.00, -0.00, -1.00, 1615.5, 40.5)">o</text><text xml:space="preserve" font-family="SqoreSans-Regular" font-size="12.0" fill="#FEFFFF" transform="matrix(1.00, 0.00, -0.00, -1.00, 1622.8, 40.5)">n</text><text xml:space="preserve" font-family="SqoreSans-Regular" font-size="12.0" fill="#FEFFFF" transform="matrix(1.00, 0.00, -0.00, -1.00, 1630.0, 40.5)">f</text><text xml:space="preserve" font-family="SqoreSans-Regular" font-size="12.0" fill="#FEFFFF" transform="matrix(1.00, 0.00, -0.00, -1.00, 1634.2, 40.5)">i</text><text xml:space="preserve" font-family="SqoreSans-Regular" font-size="12.0" fill="#FEFFFF" transform="matrix(1.00, 0.00, -0.00, -1.00, 1637.3, 40.5)">d</text><text xml:space="preserve" font-family="SqoreSans-Regular" font-size="12.0" fill="#FEFFFF" transform="matrix(1.00, 0.00, -0.00, -1.00, 1644.5, 40.5)">e</text><text xml:space="preserve" font-family="SqoreSans-Regular" font-size="12.0" fill="#FEFFFF" transform="matrix(1.00, 0.00, -0.00, -1.00, 1651.5, 40.5)">n</text><text xml:space="preserve" font-family="SqoreSans-Regular" font-size="12.0" fill="#FEFFFF" transform="matrix(1.00, 0.00, -0.00, -1.00, 1658.7, 40.5)">t</text><text xml:space="preserve" font-family="SqoreSans-Regular" font-size="12.0" fill="#FEFFFF" transform="matrix(1.00, 0.00, -0.00, -1.00, 1663.3, 40.5)">i</text><text xml:space="preserve" font-family="SqoreSans-Regular" font-size="12.0" fill="#FEFFFF" transform="matrix(1.00, 0.00, -0.00, -1.00, 1666.4, 40.5)">a</text><text xml:space="preserve" font-family="SqoreSans-Regular" font-size="12.0" fill="#FEFFFF" transform="matrix(1.00, 0.00, -0.00, -1.00, 1673.2, 40.5)">l</text><text xml:space="preserve" font-family="SqoreSans-Regular" font-size="12.0" fill="#FEFFFF" transform="matrix(1.00, 0.00, -0.00, -1.00, 1676.3, 40.5)">,</text><text xml:space="preserve" font-family="SqoreSans-Regular" font-size="12.0" fill="#FEFFFF" transform="matrix(1.00, 0.00, -0.00, -1.00, 1679.9, 40.5)"> </text><text xml:space="preserve" font-family="SqoreSans-Regular" font-size="12.0" fill="#FEFFFF" transform="matrix(1.00, 0.00, -0.00, -1.00, 1683.3, 40.5)">d</text><text xml:space="preserve" font-family="SqoreSans-Regular" font-size="12.0" fill="#FEFFFF" transform="matrix(1.00, 0.00, -0.00, -1.00, 1690.5, 40.5)">o</text><text xml:space="preserve" font-family="SqoreSans-Regular" font-size="12.0" fill="#FEFFFF" transform="matrix(1.00, 0.00, -0.00, -1.00, 1697.9, 40.5)"> </text><text xml:space="preserve" font-family="SqoreSans-Regular" font-size="12.0" fill="#FEFFFF" transform="matrix(1.00, 0.00, -0.00, -1.00, 1701.4, 40.5)">n</text><text xml:space="preserve" font-family="SqoreSans-Regular" font-size="12.0" fill="#FEFFFF" transform="matrix(1.00, 0.00, -0.00, -1.00, 1708.5, 40.5)">o</text><text xml:space="preserve" font-family="SqoreSans-Regular" font-size="12.0" fill="#FEFFFF" transform="matrix(1.00, 0.00, -0.00, -1.00, 1715.9, 40.5)">t</text><text xml:space="preserve" font-family="SqoreSans-Regular" font-size="12.0" fill="#FEFFFF" transform="matrix(1.00, 0.00, -0.00, -1.00, 1720.5, 40.5)"> </text><text xml:space="preserve" font-family="SqoreSans-Regular" font-size="12.0" fill="#FEFFFF" transform="matrix(1.00, 0.00, -0.00, -1.00, 1723.8, 40.5)">d</text><text xml:space="preserve" font-family="SqoreSans-Regular" font-size="12.0" fill="#FEFFFF" transform="matrix(1.00, 0.00, -0.00, -1.00, 1731.1, 40.5)">i</text><text xml:space="preserve" font-family="SqoreSans-Regular" font-size="12.0" fill="#FEFFFF" transform="matrix(1.00, 0.00, -0.00, -1.00, 1734.2, 40.5)">s</text><text xml:space="preserve" font-family="SqoreSans-Regular" font-size="12.0" fill="#FEFFFF" transform="matrix(1.00, 0.00, -0.00, -1.00, 1739.9, 40.5)">t</text><text xml:space="preserve" font-family="SqoreSans-Regular" font-size="12.0" fill="#FEFFFF" transform="matrix(1.00, 0.00, -0.00, -1.00, 1744.5, 40.5)">r</text><text xml:space="preserve" font-family="SqoreSans-Regular" font-size="12.0" fill="#FEFFFF" transform="matrix(1.00, 0.00, -0.00, -1.00, 1748.9, 40.5)">i</text><text xml:space="preserve" font-family="SqoreSans-Regular" font-size="12.0" fill="#FEFFFF" transform="matrix(1.00, 0.00, -0.00, -1.00, 1752.1, 40.5)">b</text><text xml:space="preserve" font-family="SqoreSans-Regular" font-size="12.0" fill="#FEFFFF" transform="matrix(1.00, 0.00, -0.00, -1.00, 1759.3, 40.5)">u</text><text xml:space="preserve" font-family="SqoreSans-Regular" font-size="12.0" fill="#FEFFFF" transform="matrix(1.00, 0.00, -0.00, -1.00, 1766.4, 40.5)">t</text><text xml:space="preserve" font-family="SqoreSans-Regular" font-size="12.0" fill="#FEFFFF" transform="matrix(1.00, 0.00, -0.00, -1.00, 1770.8, 40.5)">e</text><text xml:space="preserve" font-family="SqoreSans-Regular" font-size="12.0" fill="#FEFFFF" transform="matrix(1.00, 0.00, -0.00, -1.00, 1777.8, 40.5)">.</text><text xml:space="preserve" font-family="SqoreSans-Regular" font-size="12.0" fill="#FEFFFF" transform="matrix(1.00, 0.00, -0.00, -1.00, 1781.6, 40.5)"> </text><text xml:space="preserve" font-family="SqoreSans-Regular" font-size="12.0" fill="#FEFFFF" transform="matrix(1.00, 0.00, -0.00, -1.00, 1785.0, 40.5)">©</text><text xml:space="preserve" font-family="SqoreSans-Regular" font-size="12.0" fill="#FEFFFF" transform="matrix(1.00, 0.00, -0.00, -1.00, 1794.9, 40.5)"> </text><text xml:space="preserve" font-family="SqoreSans-Regular" font-size="12.0" fill="#FEFFFF" transform="matrix(1.00, 0.00, -0.00, -1.00, 1798.4, 40.5)">2</text><text xml:space="preserve" font-family="SqoreSans-Regular" font-size="12.0" fill="#FEFFFF" transform="matrix(1.00, 0.00, -0.00, -1.00, 1806.2, 40.5)">0</text><text xml:space="preserve" font-family="SqoreSans-Regular" font-size="12.0" fill="#FEFFFF" transform="matrix(1.00, 0.00, -0.00, -1.00, 1814.0, 40.5)">1</text><text xml:space="preserve" font-family="SqoreSans-Regular" font-size="12.0" fill="#FEFFFF" transform="matrix(1.00, 0.00, -0.00, -1.00, 1821.8, 40.5)">6</text><g><clipPath id="clip-78"><path d="M 963.4 0.1 L 1311.3 1080.0 L 1921.0 1080.5 L 1920.5 -0.5 L 963.4 0.1 Z M 963.4 0.1 "></path></clipPath><g clip-path="url(#clip-78)"><image xlink:href="../../BF339CE3-8567-4B2C-91D6-D4F0AE2B0907/assets/4A299C433F9111BB03D57A553A62AD45.jpeg" width="1366.00" height="768.00" transform="matrix(1.41, 0.00, -0.00, -1.41, 481.3, 1080.5)"></image><path d="M 963.4 1080.5 L 1921.0 1080.5 L 1921.0 -0.5 L 963.4 -0.5 Z M 963.4 1080.5 " fill="#252E35" fill-opacity="0.50"></path></g></g><text xml:space="preserve" font-family="SqoreSans-Bold" font-weight="bold" font-size="12.0" fill="#FEFFFF" transform="matrix(1.00, 0.00, -0.00, -1.00, 1871.0, 41.0)">2</text><text xml:space="preserve" font-family="SqoreSans-Bold" font-weight="bold" font-size="134.0" fill="#333E48" transform="matrix(1.00, 0.00, -0.00, -1.00, 183.0, 837.0)">W</text><text xml:space="preserve" font-family="SqoreSans-Bold" font-weight="bold" font-size="134.0" fill="#333E48" transform="matrix(1.00, 0.00, -0.00, -1.00, 316.9, 837.0)">h</text><text xml:space="preserve" font-family="SqoreSans-Bold" font-weight="bold" font-size="134.0" fill="#333E48" transform="matrix(1.00, 0.00, -0.00, -1.00, 398.1, 837.0)">o</text><text xml:space="preserve" font-family="SqoreSans-Bold" font-weight="bold" font-size="134.0" fill="#333E48" transform="matrix(1.00, 0.00, -0.00, -1.00, 482.4, 837.0)"> </text><text xml:space="preserve" font-family="SqoreSans-Bold" font-weight="bold" font-size="134.0" fill="#333E48" transform="matrix(1.00, 0.00, -0.00, -1.00, 517.2, 837.0)">a</text><text xml:space="preserve" font-family="SqoreSans-Bold" font-weight="bold" font-size="134.0" fill="#333E48" transform="matrix(1.00, 0.00, -0.00, -1.00, 596.1, 837.0)">m</text><text xml:space="preserve" font-family="SqoreSans-Bold" font-weight="bold" font-size="134.0" fill="#333E48" transform="matrix(1.00, 0.00, -0.00, -1.00, 718.9, 837.0)"> </text><text xml:space="preserve" font-family="SqoreSans-Bold" font-weight="bold" font-size="134.0" fill="#333E48" transform="matrix(1.00, 0.00, -0.00, -1.00, 753.7, 837.0)">I</text><text xml:space="preserve" font-family="SqoreSans-Bold" font-weight="bold" font-size="134.0" fill="#333E48" transform="matrix(1.00, 0.00, -0.00, -1.00, 796.6, 837.0)">?</text><text xml:space="preserve" font-family="SqoreSans-Bold" font-weight="bold" font-size="70.0" fill="#333E48" transform="matrix(1.00, 0.00, -0.00, -1.00, 289.0, 690.0)">M</text><text xml:space="preserve" font-family="SqoreSans-Bold" font-weight="bold" font-size="70.0" fill="#333E48" transform="matrix(1.00, 0.00, -0.00, -1.00, 349.5, 690.0)">a</text><text xml:space="preserve" font-family="SqoreSans-Bold" font-weight="bold" font-size="70.0" fill="#333E48" transform="matrix(1.00, 0.00, -0.00, -1.00, 390.7, 690.0)">x</text><text xml:space="preserve" font-family="SqoreSans-Bold" font-weight="bold" font-size="70.0" fill="#333E48" transform="matrix(1.00, 0.00, -0.00, -1.00, 427.7, 690.0)"> </text><text xml:space="preserve" font-family="SqoreSans-Bold" font-weight="bold" font-size="70.0" fill="#333E48" transform="matrix(1.00, 0.00, -0.00, -1.00, 445.9, 690.0)">N</text><text xml:space="preserve" font-family="SqoreSans-Bold" font-weight="bold" font-size="70.0" fill="#333E48" transform="matrix(1.00, 0.00, -0.00, -1.00, 496.3, 690.0)">o</text><text xml:space="preserve" font-family="SqoreSans-Bold" font-weight="bold" font-size="70.0" fill="#333E48" transform="matrix(1.00, 0.00, -0.00, -1.00, 540.3, 690.0)">r</text><text xml:space="preserve" font-family="SqoreSans-Bold" font-weight="bold" font-size="70.0" fill="#333E48" transform="matrix(1.00, 0.00, -0.00, -1.00, 568.2, 690.0)">d</text><text xml:space="preserve" font-family="SqoreSans-Bold" font-weight="bold" font-size="70.0" fill="#333E48" transform="matrix(1.00, 0.00, -0.00, -1.00, 611.5, 690.0)">l</text><text xml:space="preserve" font-family="SqoreSans-Bold" font-weight="bold" font-size="70.0" fill="#333E48" transform="matrix(1.00, 0.00, -0.00, -1.00, 632.5, 690.0)">u</text><text xml:space="preserve" font-family="SqoreSans-Bold" font-weight="bold" font-size="70.0" fill="#333E48" transform="matrix(1.00, 0.00, -0.00, -1.00, 675.1, 690.0)">n</text><text xml:space="preserve" font-family="SqoreSans-Bold" font-weight="bold" font-size="70.0" fill="#333E48" transform="matrix(1.00, 0.00, -0.00, -1.00, 717.5, 690.0)">d</text><text xml:space="preserve" font-family="SqoreSans-Bold" font-weight="bold" font-size="70.0" fill="#333E48" transform="matrix(1.00, 0.00, -0.00, -1.00, 760.8, 690.0)"> </text><text xml:space="preserve" font-family="SqoreSans-Regular" font-size="40.0" fill="#333E48" transform="matrix(1.00, 0.00, -0.00, -1.00, 363.0, 635.0)">S</text><text xml:space="preserve" font-family="SqoreSans-Regular" font-size="40.0" fill="#333E48" transform="matrix(1.00, 0.00, -0.00, -1.00, 386.1, 635.0)">e</text><text xml:space="preserve" font-family="SqoreSans-Regular" font-size="40.0" fill="#333E48" transform="matrix(1.00, 0.00, -0.00, -1.00, 409.4, 635.0)">n</text><text xml:space="preserve" font-family="SqoreSans-Regular" font-size="40.0" fill="#333E48" transform="matrix(1.00, 0.00, -0.00, -1.00, 433.4, 635.0)">i</text><text xml:space="preserve" font-family="SqoreSans-Regular" font-size="40.0" fill="#333E48" transform="matrix(1.00, 0.00, -0.00, -1.00, 443.9, 635.0)">o</text><text xml:space="preserve" font-family="SqoreSans-Regular" font-size="40.0" fill="#333E48" transform="matrix(1.00, 0.00, -0.00, -1.00, 468.4, 635.0)">r</text><text xml:space="preserve" font-family="SqoreSans-Regular" font-size="40.0" fill="#333E48" transform="matrix(1.00, 0.00, -0.00, -1.00, 483.3, 635.0)"> </text><text xml:space="preserve" font-family="SqoreSans-Regular" font-size="40.0" fill="#333E48" transform="matrix(1.00, 0.00, -0.00, -1.00, 494.8, 635.0)">D</text><text xml:space="preserve" font-family="SqoreSans-Regular" font-size="40.0" fill="#333E48" transform="matrix(1.00, 0.00, -0.00, -1.00, 522.5, 635.0)">e</text><text xml:space="preserve" font-family="SqoreSans-Regular" font-size="40.0" fill="#333E48" transform="matrix(1.00, 0.00, -0.00, -1.00, 545.3, 635.0)">v</text><text xml:space="preserve" font-family="SqoreSans-Regular" font-size="40.0" fill="#333E48" transform="matrix(1.00, 0.00, -0.00, -1.00, 565.8, 635.0)">e</text><text xml:space="preserve" font-family="SqoreSans-Regular" font-size="40.0" fill="#333E48" transform="matrix(1.00, 0.00, -0.00, -1.00, 589.2, 635.0)">l</text><text xml:space="preserve" font-family="SqoreSans-Regular" font-size="40.0" fill="#333E48" transform="matrix(1.00, 0.00, -0.00, -1.00, 599.5, 635.0)">o</text><text xml:space="preserve" font-family="SqoreSans-Regular" font-size="40.0" fill="#333E48" transform="matrix(1.00, 0.00, -0.00, -1.00, 624.0, 635.0)">p</text><text xml:space="preserve" font-family="SqoreSans-Regular" font-size="40.0" fill="#333E48" transform="matrix(1.00, 0.00, -0.00, -1.00, 647.8, 635.0)">e</text><text xml:space="preserve" font-family="SqoreSans-Regular" font-size="40.0" fill="#333E48" transform="matrix(1.00, 0.00, -0.00, -1.00, 671.2, 635.0)">r</text><text xml:space="preserve" font-family="SqoreSans-Regular" font-size="40.0" fill="#333E48" transform="matrix(1.00, 0.00, -0.00, -1.00, 686.0, 635.0)"> </text><text xml:space="preserve" font-family="SqoreSans-Regular" font-size="40.0" fill="#333E48" transform="matrix(1.00, 0.00, -0.00, -1.00, 278.0, 587.0)">m</text><text xml:space="preserve" font-family="SqoreSans-Regular" font-size="40.0" fill="#333E48" transform="matrix(1.00, 0.00, -0.00, -1.00, 313.8, 587.0)">a</text><text xml:space="preserve" font-family="SqoreSans-Regular" font-size="40.0" fill="#333E48" transform="matrix(1.00, 0.00, -0.00, -1.00, 336.2, 587.0)">x</text><text xml:space="preserve" font-family="SqoreSans-Regular" font-size="40.0" fill="#333E48" transform="matrix(1.00, 0.00, -0.00, -1.00, 355.8, 587.0)">.</text><text xml:space="preserve" font-family="SqoreSans-Regular" font-size="40.0" fill="#333E48" transform="matrix(1.00, 0.00, -0.00, -1.00, 368.5, 587.0)">n</text><text xml:space="preserve" font-family="SqoreSans-Regular" font-size="40.0" fill="#333E48" transform="matrix(1.00, 0.00, -0.00, -1.00, 392.3, 587.0)">o</text><text xml:space="preserve" font-family="SqoreSans-Regular" font-size="40.0" fill="#333E48" transform="matrix(1.00, 0.00, -0.00, -1.00, 416.9, 587.0)">r</text><text xml:space="preserve" font-family="SqoreSans-Regular" font-size="40.0" fill="#333E48" transform="matrix(1.00, 0.00, -0.00, -1.00, 431.4, 587.0)">d</text><text xml:space="preserve" font-family="SqoreSans-Regular" font-size="40.0" fill="#333E48" transform="matrix(1.00, 0.00, -0.00, -1.00, 455.5, 587.0)">l</text><text xml:space="preserve" font-family="SqoreSans-Regular" font-size="40.0" fill="#333E48" transform="matrix(1.00, 0.00, -0.00, -1.00, 465.8, 587.0)">u</text><text xml:space="preserve" font-family="SqoreSans-Regular" font-size="40.0" fill="#333E48" transform="matrix(1.00, 0.00, -0.00, -1.00, 489.5, 587.0)">n</text><text xml:space="preserve" font-family="SqoreSans-Regular" font-size="40.0" fill="#333E48" transform="matrix(1.00, 0.00, -0.00, -1.00, 513.3, 587.0)">d</text><text xml:space="preserve" font-family="SqoreSans-Regular" font-size="40.0" fill="#333E48" transform="matrix(1.00, 0.00, -0.00, -1.00, 537.4, 587.0)">@</text><text xml:space="preserve" font-family="SqoreSans-Regular" font-size="40.0" fill="#333E48" transform="matrix(1.00, 0.00, -0.00, -1.00, 573.0, 587.0)">s</text><text xml:space="preserve" font-family="SqoreSans-Regular" font-size="40.0" fill="#333E48" transform="matrix(1.00, 0.00, -0.00, -1.00, 592.0, 587.0)">q</text><text xml:space="preserve" font-family="SqoreSans-Regular" font-size="40.0" fill="#333E48" transform="matrix(1.00, 0.00, -0.00, -1.00, 616.1, 587.0)">o</text><text xml:space="preserve" font-family="SqoreSans-Regular" font-size="40.0" fill="#333E48" transform="matrix(1.00, 0.00, -0.00, -1.00, 640.7, 587.0)">r</text><text xml:space="preserve" font-family="SqoreSans-Regular" font-size="40.0" fill="#333E48" transform="matrix(1.00, 0.00, -0.00, -1.00, 655.2, 587.0)">e</text><text xml:space="preserve" font-family="SqoreSans-Regular" font-size="40.0" fill="#333E48" transform="matrix(1.00, 0.00, -0.00, -1.00, 678.6, 587.0)">.</text><text xml:space="preserve" font-family="SqoreSans-Regular" font-size="40.0" fill="#333E48" transform="matrix(1.00, 0.00, -0.00, -1.00, 691.2, 587.0)">c</text><text xml:space="preserve" font-family="SqoreSans-Regular" font-size="40.0" fill="#333E48" transform="matrix(1.00, 0.00, -0.00, -1.00, 711.8, 587.0)">o</text><text xml:space="preserve" font-family="SqoreSans-Regular" font-size="40.0" fill="#333E48" transform="matrix(1.00, 0.00, -0.00, -1.00, 736.4, 587.0)">m</text><text xml:space="preserve" font-family="SqoreSans-Regular" font-size="40.0" fill="#333E48" transform="matrix(1.00, 0.00, -0.00, -1.00, 772.2, 587.0)"> </text><g><clipPath id="clip-79"><path d="M 276.8 582.6 L 772.0 582.6 L 772.0 586.6 L 276.8 586.6 Z M 276.8 582.6 "></path></clipPath><g clip-path="url(#clip-79)"><path d="M 187.4 172.1 L 681.6 172.1 " fill="none" stroke="#333E48" stroke-width="2.00" stroke-miterlimit="0.00" transform="matrix(1.00, 0.00, 0.00, -1.00, 90.4, 756.7)"></path></g></g><text xml:space="preserve" font-family="SqoreSans-Regular" font-size="40.0" fill="#333E48" transform="matrix(1.00, 0.00, -0.00, -1.00, 336.0, 539.0)">T</text><text xml:space="preserve" font-family="SqoreSans-Regular" font-size="40.0" fill="#333E48" transform="matrix(1.00, 0.00, -0.00, -1.00, 357.2, 539.0)">w</text><text xml:space="preserve" font-family="SqoreSans-Regular" font-size="40.0" fill="#333E48" transform="matrix(1.00, 0.00, -0.00, -1.00, 388.2, 539.0)">i</text><text xml:space="preserve" font-family="SqoreSans-Regular" font-size="40.0" fill="#333E48" transform="matrix(1.00, 0.00, -0.00, -1.00, 398.7, 539.0)">t</text><text xml:space="preserve" font-family="SqoreSans-Regular" font-size="40.0" fill="#333E48" transform="matrix(1.00, 0.00, -0.00, -1.00, 414.0, 539.0)">t</text><text xml:space="preserve" font-family="SqoreSans-Regular" font-size="40.0" fill="#333E48" transform="matrix(1.00, 0.00, -0.00, -1.00, 428.5, 539.0)">e</text><text xml:space="preserve" font-family="SqoreSans-Regular" font-size="40.0" fill="#333E48" transform="matrix(1.00, 0.00, -0.00, -1.00, 451.8, 539.0)">r</text><text xml:space="preserve" font-family="SqoreSans-Regular" font-size="40.0" fill="#333E48" transform="matrix(1.00, 0.00, -0.00, -1.00, 466.7, 539.0)">:</text><text xml:space="preserve" font-family="SqoreSans-Regular" font-size="40.0" fill="#333E48" transform="matrix(1.00, 0.00, -0.00, -1.00, 479.4, 539.0)"> </text><text xml:space="preserve" font-family="SqoreSans-Regular" font-size="40.0" fill="#333E48" transform="matrix(1.00, 0.00, -0.00, -1.00, 490.9, 539.0)">@</text><text xml:space="preserve" font-family="SqoreSans-Regular" font-size="40.0" fill="#333E48" transform="matrix(1.00, 0.00, -0.00, -1.00, 526.6, 539.0)">n</text><text xml:space="preserve" font-family="SqoreSans-Regular" font-size="40.0" fill="#333E48" transform="matrix(1.00, 0.00, -0.00, -1.00, 550.4, 539.0)">e</text><text xml:space="preserve" font-family="SqoreSans-Regular" font-size="40.0" fill="#333E48" transform="matrix(1.00, 0.00, -0.00, -1.00, 573.2, 539.0)">v</text><text xml:space="preserve" font-family="SqoreSans-Regular" font-size="40.0" fill="#333E48" transform="matrix(1.00, 0.00, -0.00, -1.00, 594.2, 539.0)">o</text><text xml:space="preserve" font-family="SqoreSans-Regular" font-size="40.0" fill="#333E48" transform="matrix(1.00, 0.00, -0.00, -1.00, 618.8, 539.0)">n</text><text xml:space="preserve" font-family="SqoreSans-Regular" font-size="40.0" fill="#333E48" transform="matrix(1.00, 0.00, -0.00, -1.00, 642.7, 539.0)">n</text><text xml:space="preserve" font-family="SqoreSans-Regular" font-size="40.0" fill="#333E48" transform="matrix(1.00, 0.00, -0.00, -1.00, 666.5, 539.0)">e</text><text xml:space="preserve" font-family="SqoreSans-Regular" font-size="40.0" fill="#333E48" transform="matrix(1.00, 0.00, -0.00, -1.00, 689.9, 539.0)">n</text><text xml:space="preserve" font-family="SqoreSans-Regular" font-size="40.0" fill="#333E48" transform="matrix(1.00, 0.00, -0.00, -1.00, 713.8, 539.0)"> </text><text xml:space="preserve" font-family="SqoreSans-Regular" font-size="40.0" fill="#333E48" transform="matrix(1.00, 0.00, -0.00, -1.00, 305.0, 491.0)">+</text><text xml:space="preserve" font-family="SqoreSans-Regular" font-size="40.0" fill="#333E48" transform="matrix(1.00, 0.00, -0.00, -1.00, 333.8, 491.0)"> </text><text xml:space="preserve" font-family="SqoreSans-Regular" font-size="40.0" fill="#333E48" transform="matrix(1.00, 0.00, -0.00, -1.00, 345.4, 491.0)">4</text><text xml:space="preserve" font-family="SqoreSans-Regular" font-size="40.0" fill="#333E48" transform="matrix(1.00, 0.00, -0.00, -1.00, 371.4, 491.0)">6</text><text xml:space="preserve" font-family="SqoreSans-Regular" font-size="40.0" fill="#333E48" transform="matrix(1.00, 0.00, -0.00, -1.00, 397.4, 491.0)"> </text><text xml:space="preserve" font-family="SqoreSans-Regular" font-size="40.0" fill="#333E48" transform="matrix(1.00, 0.00, -0.00, -1.00, 408.9, 491.0)">(</text><text xml:space="preserve" font-family="SqoreSans-Regular" font-size="40.0" fill="#333E48" transform="matrix(1.00, 0.00, -0.00, -1.00, 424.0, 491.0)">0</text><text xml:space="preserve" font-family="SqoreSans-Regular" font-size="40.0" fill="#333E48" transform="matrix(1.00, 0.00, -0.00, -1.00, 450.0, 491.0)">)</text><text xml:space="preserve" font-family="SqoreSans-Regular" font-size="40.0" fill="#333E48" transform="matrix(1.00, 0.00, -0.00, -1.00, 465.2, 491.0)"> </text><text xml:space="preserve" font-family="SqoreSans-Regular" font-size="40.0" fill="#333E48" transform="matrix(1.00, 0.00, -0.00, -1.00, 476.7, 491.0)">7</text><text xml:space="preserve" font-family="SqoreSans-Regular" font-size="40.0" fill="#333E48" transform="matrix(1.00, 0.00, -0.00, -1.00, 502.7, 491.0)">3</text><text xml:space="preserve" font-family="SqoreSans-Regular" font-size="40.0" fill="#333E48" transform="matrix(1.00, 0.00, -0.00, -1.00, 528.7, 491.0)"> </text><text xml:space="preserve" font-family="SqoreSans-Regular" font-size="40.0" fill="#333E48" transform="matrix(1.00, 0.00, -0.00, -1.00, 540.2, 491.0)">4</text><text xml:space="preserve" font-family="SqoreSans-Regular" font-size="40.0" fill="#333E48" transform="matrix(1.00, 0.00, -0.00, -1.00, 566.2, 491.0)">2</text><text xml:space="preserve" font-family="SqoreSans-Regular" font-size="40.0" fill="#333E48" transform="matrix(1.00, 0.00, -0.00, -1.00, 592.2, 491.0)"> </text><text xml:space="preserve" font-family="SqoreSans-Regular" font-size="40.0" fill="#333E48" transform="matrix(1.00, 0.00, -0.00, -1.00, 603.7, 491.0)">5</text><text xml:space="preserve" font-family="SqoreSans-Regular" font-size="40.0" fill="#333E48" transform="matrix(1.00, 0.00, -0.00, -1.00, 629.7, 491.0)">5</text><text xml:space="preserve" font-family="SqoreSans-Regular" font-size="40.0" fill="#333E48" transform="matrix(1.00, 0.00, -0.00, -1.00, 655.7, 491.0)"> </text><text xml:space="preserve" font-family="SqoreSans-Regular" font-size="40.0" fill="#333E48" transform="matrix(1.00, 0.00, -0.00, -1.00, 667.2, 491.0)">1</text><text xml:space="preserve" font-family="SqoreSans-Regular" font-size="40.0" fill="#333E48" transform="matrix(1.00, 0.00, -0.00, -1.00, 693.2, 491.0)">7</text><text xml:space="preserve" font-family="SqoreSans-Regular" font-size="40.0" fill="#333E48" transform="matrix(1.00, 0.00, -0.00, -1.00, 719.2, 491.0)">8</text><image xlink:href="../../BF339CE3-8567-4B2C-91D6-D4F0AE2B0907/assets/560EF6D0A91A638CB38426AF1D1FC1E7.png" width="400.00" height="400.00" transform="matrix(1.00, 0.00, -0.00, -1.00, 326.4, 453.7)" opacity="0.50"></image><g><clipPath id="clip-80"><path d="M 661.6 391.9 C 737.1 316.4 737.1 194.0 661.6 118.5 C 586.1 43.0 463.7 43.0 388.2 118.5 C 312.7 194.0 312.7 316.4 388.2 391.9 C 463.7 467.4 586.1 467.4 661.6 391.9 Z M 661.6 391.9 "></path></clipPath><g clip-path="url(#clip-80)"><image xlink:href="../../BF339CE3-8567-4B2C-91D6-D4F0AE2B0907/assets/24E0E47462D47C467DBA4ABE6308AC6C.png" width="387.00" height="387.00" transform="matrix(1.00, 0.00, -0.00, -1.00, 332.0, 449.0)"></image></g></g><path d="M 193.3 0.0 C 143.8 0.0 94.4 18.9 56.6 56.6 C 18.9 94.4 0.0 143.8 0.0 193.3 C 0.0 242.8 18.9 292.3 56.6 330.0 C 94.4 367.7 143.8 386.6 193.3 386.6 C 242.8 386.6 292.3 367.7 330.0 330.0 C 367.7 292.3 386.6 242.8 386.6 193.3 C 386.6 143.8 367.7 94.4 330.0 56.6 C 292.3 18.9 242.8 0.0 193.3 0.0 Z M 193.3 0.0 " fill="none" stroke="#FEFFFF" stroke-width="6.00" transform="matrix(1.00, 0.00, 0.00, -1.00, 331.6, 448.5)"></path><text xml:space="preserve" font-family="SqoreSans-Bold" font-weight="bold" font-size="12.0" fill="#FEFFFF" transform="matrix(1.00, 0.00, -0.00, -1.00, 1871.0, 41.0)">2</text></g></svg>